<ttFont>
          <CharString index="0">
            114 239 rmoveto
            121 81 93 101 50 50 -20 -51 54 vhcurveto
            -267 vlineto
            -56 -53 -56 -32 -56 hhcurveto
            -107 -64 85 127 hvcurveto
            -47 hmoveto
            -162 86 -89 126 67 62 39 44 42 vhcurveto
            2 hlineto
            return
          </CharString>
          <CharString index="1">
            rmoveto
            42 123 26 78 24 69 23 81 rlinecurve
            4 hlineto
            23 -81 23 -69 27 -78 42 -123 rcurveline
            89 -265 rmoveto
            49 hlineto
            -232 659 rlineto
            -46 hlineto
            -232 -659 rlineto
            46 hlineto
            78 226 rlineto
            261 hlineto
            endchar
          </CharString>
          <CharString index="2">
            -343 hlineto
            -75 -66 -50 -34 -68 hhcurveto
            -95 -40 52 107 hvcurveto
            293 -44 -299 vlineto
            -130 55 -63 117 77 60 44 61 52 vhcurveto
            4 hlineto
            return
          </CharString>
          <CharString index="3">
            -260 -23 -108 -51 -107 vvcurveto
            45 2 rmoveto
            77 79 46 244 22 vhcurveto
            -154 vlineto
            -57 -68 -64 -30 -61 hhcurveto
            -65 -65 27 69 hvcurveto
            return
          </CharString>
          <CharString index="4">
            89 247 rmoveto
            -200 101 -59 110 111 100 59 200 vhcurveto
            412 -43 -407 vlineto
            -170 -78 -52 -90 -88 -77 52 170 vhcurveto
            407 -46 vlineto
            return
          </CharString>
          <CharString index="5">
            59 331 rmoveto
            -210 111 -133 164 85 66 31 44 40 vhcurveto
            261 -197 -39 152 -205 vlineto
            -32 -31 -54 -18 -58 hhcurveto
            -144 -86 118 183 183 91 115 145 70 45 -30 -37 33 hvcurveto
            27 30 rlineto
            37 -34 -54 42 -87 hhcurveto
            -170 27 callsubr
            return
          </CharString>
          <CharString index="6">
            46 vstem
            83 64 rmoveto
            -41 57 80 -35 99 hhcurveto
            126 72 63 72 69 -49 38 -150 37 hvcurveto
            -99 24 -63 30 46 vvcurveto
            45 34 42 107 65 54 -21 -32 42 vhcurveto
            24 32 rlineto
            34 -46 -74 25 -64 hhcurveto
            -129 -59 -58 -70 -64 81 -43 108 -26 hvcurveto
            141 -34 31 -32 -44 vvcurveto
            -51 -51 -44 -99 -99 -62 27 43 -52 vhcurveto
            return
          </CharString>
          <CharString index="7">
            -5 -55 rlineto
            -2 hlineto
            42 -48 -49 25 -60 hhcurveto
            -120 -107 -98 -155 hvcurveto
            return
          </CharString>
          <CharString index="8">
            127 hmoveto
            400 40 -354 290 290 40 -290 249 344 40 -390 hlineto
            return
          </CharString>
          <CharString index="9">
            vstem
            123 hmoveto
            55 hlineto
            91 316 11 38 9 38 10 39 rlinecurve
            3 hlineto
            10 -39 8 -38 10 -38 94 -316 rcurveline
            56 hlineto
            106 660 rlineto
            -42 hlineto
            -68 -451 -7 -53 -8 -53 -6 -53 rlinecurve
            -4 hlineto
            -15 53 -16 53 -14 53 -84 279 rcurveline
            -42 hlineto
            -82 -279 -15 -53 -16 -52 -16 -54 rlinecurve
            -2 hlineto
            -6 54 -9 52 -6 53 -71 451 rcurveline
            -43 hlineto
            return
          </CharString>
          <CharString index="10">
            92 120 rmoveto
            -91 81 -41 86 71 74 40 44 56 vhcurveto
            2 hlineto
            return
          </CharString>
          <CharString index="11">
            rmoveto
            28 20 25 39 18 vhcurveto
            52 -16 53 -11 -46 vvcurveto
            -32 -41 -23 -41 -46 -36 25 32 vhcurveto
            hintmask 11011000
            106 92 rmoveto
            -49 13 -44 17 35 vvcurveto
            28 26 21 43 46 25 -22 -28 -24 -13 -21 -34 -19 vhcurveto
            hintmask 11100100
            -144 -93 rmoveto
            -46 47 -41 73 67 53 -21 callsubr
            hintmask 11011000
            -78 callsubr
            hintmask 11100100
            -35 -17 -32 -25 -41 vvcurveto
            endchar
          </CharString>
          <CharString index="12">
            225 180 rmoveto
            -115 40 -77 131 46 58 12 18 43 vhcurveto
            -12 34 rlineto
            -16 -38 -40 -9 -51 hhcurveto
            -106 -27 56 93 hvcurveto
            266 256 38 -256 139 -37 vlineto
            -6 -139 -146 -4 rlineto
            -34 145 vlineto
            return
          </CharString>
          <CharString index="13">
            26 21 18 30 29 -21 19 -26 return
          </CharString>
          <CharString index="14">
            rmoveto
            171 205 -22 20 -181 -197 rlineto
            498 561 rmoveto
            -171 -205 22 -20 181 197 rlineto
            return
          </CharString>
          <CharString index="15">
            rmoveto
            75 72 57 callsubr
            -72 rlineto
            40 hlineto
            -96 106 rlineto
            -42 hlineto
            -96 -106 rlineto
            return
          </CharString>
          <CharString index="16">
            0 41 390 41 8 -20 hstemhm
            11 578 hintmask 10110000
            135 hmoveto
            57 hlineto
            74 292 rlineto
            hintmask 11010000
            13 49 9 46 10 44 rrcurveto
            4 hlineto
            12 -47 9 -44 11 -46 76 -294 rcurveline
            57 hlineto
            hintmask 10110000
            122 480 rlineto
            -44 hlineto
            -76 -311 -10 -44 -10 -41 -10 -43 rlinecurve
            -4 hlineto
            -11 43 -10 41 -11 44 rrcurveto
            hintmask 11010000
            -77 303 rlineto
            -49 hlineto
            -77 -303 -11 -44 -10 -41 -11 -43 rlinecurve
            -4 hlineto
            -8 43 -10 41 -11 44 rrcurveto
            hintmask 10110000
            -77 311 rlineto
            -47 hlineto
            return
          </CharString>
          <CharString index="17">
            155 callsubr
            22 52 vvcurveto
            50 -55 22 -66 2 -6 callsubr
            30 -15 -31 vvcurveto
            -28 -27 -15 -36 -11 vhcurveto
            return
          </CharString>
          <CharString index="18">
            rmoveto
            -75 -72 rlineto
            -4 hlineto
            -75 72 rlineto
            -40 hlineto
            96 -106 rlineto
            42 hlineto
            96 106 rlineto
            endchar
          </CharString>
          <CharString index="19">
            rmoveto
            21 16 14 22 23 -16 14 -21 -21 -15 -14 -23 -22 15 -14 21 hvcurveto
            158 hmoveto
            21 15 14 22 23 -15 14 -21 -21 -16 -14 -23 -22 16 -14 21 hvcurveto
            endchar
          </CharString>
          <CharString index="20">
            189 717 rmoveto
            9 -14 5 -12 -13 vvcurveto
            -39 -29 -21 -61 -8 vhcurveto
            20 -33 -38 11 -42 hhcurveto
            -144 -102 -131 -208 -209 102 -135 144 hvcurveto
            return
          </CharString>
          <CharString index="21">
            -26 -21 -19 -29 -30 21 -18 26 return
          </CharString>
          <CharString index="22">
            rmoveto
            -81 callgsubr
            -40 hlineto
            return
          </CharString>
          <CharString index="23">
            -39 callsubr
            -27 -20 -19 -29 -30 20 -18 27 hvcurveto
            endchar
          </CharString>
          <CharString index="24">
            -86 callsubr
            hvcurveto
            endchar
          </CharString>
          <CharString index="25">
            103 14 66 60 105 vvcurveto
            126 -86 48 -131 vhcurveto
            -188 -659 46 303 140 hlineto
            178 -303 rlineto
            return
          </CharString>
          <CharString index="26">
            -41 -25 56 -53 hhcurveto
            -45 -23 -47 -45 125 callsubr
            34 4 16 23 21 hhcurveto
            return
          </CharString>
          <CharString index="27">
            rmoveto
            -86 callsubr
            -94 callsubr
            hvcurveto
            -117 379 rmoveto
            42 123 26 78 24 69 23 81 rlinecurve
            4 hlineto
            23 -81 23 -69 27 -78 42 -123 rcurveline
            138 -265 rmoveto
            -232 659 rlineto
            -46 hlineto
            -232 -659 rlineto
            46 hlineto
            78 226 rlineto
            261 hlineto
            76 -226 rlineto
            endchar
          </CharString>
          <CharString index="28">
            rmoveto
            -61 callgsubr
            hintmask 11110000
            38 14 20 24 39 vvcurveto
            53 -40 28 -59 -42 -41 -18 -29 -23 vhcurveto
            23 -23 rlineto
            24 20 33 14 25 hhcurveto
            45 20 -21 -31 -35 -29 -27 -65 hvcurveto
            -28 vlineto
            hintmask 11101000
            73 36 -20 -41 -41 -30 -17 -43 -41 -35 165 callgsubr
          </CharString>
          <CharString index="29">
            23 14 30 23 39 vvcurveto
            45 -45 35 -63 -58 -49 -34 -46 -34 25 -20 29 -17 vhcurveto
            -4 vlineto
            return
          </CharString>
          <CharString index="30">
            hstem
            167 41 208 37 vstem
            167 419 rmoveto
            -105 72 -62 88 49 35 16 16 28 vhcurveto
            -16 28 rlineto
            -16 -26 -29 -11 -36 hhcurveto
            -72 -49 52 75 -3 hvcurveto
            242 hlineto
            2 8 1 9 9 vvcurveto
            92 -51 56 -84 -77 -74 -63 -104 vhcurveto
            41 22 rmoveto
            70 7 50 42 54 hhcurveto
            59 38 -39 -73 hvcurveto
            return
          </CharString>
          <CharString index="31">
            rmoveto
            39 26 28 45 45 39 -30 -61 7 vhcurveto
            -31 -32 -27 -10 -32 hhcurveto
            -51 -20 27 38 hvcurveto
            -31 -198 rmoveto
            -15 23 24 -13 37 hhcurveto
            81 67 54 128 91 -61 52 -68 -65 -45 -44 -55 -53 32 -43 71 37 32 14 24 29 hvcurveto
            -97 -5 -47 -39 -57 hhcurveto
            -28 -21 11 13 -18 hvcurveto
            endchar
          </CharString>
          <CharString index="32">
            5 -71 rlineto
            38 480 -37 hlineto
            return
          </CharString>
          <CharString index="33">
            42 callgsubr
            -38 101 callgsubr
            return
          </CharString>
          <CharString index="34">
            78 -16 callgsubr
            65 -78 rlineto
            36 hlineto
            -84 114 rlineto
            return
          </CharString>
          <CharString index="35">
            rmoveto
            22 18 16 25 23 -18 16 -22 -22 -18 -16 -23 -25 18 -16 22 hvcurveto
            endchar
          </CharString>
          <CharString index="36">
            -31 callsubr
            -37 -15 -55 -8 vhcurveto
            6 -30 rlineto
            return
          </CharString>
          <CharString index="37">
            8 -19 -21 4 -26 hhcurveto
            -98 -81 -72 -99 -58 26 -41 31 -25 hvcurveto
            -4 vlineto
            return
          </CharString>
          <CharString index="38">
            -231 36 194 42 -21 -21 154 35 255 37 -24 24 -24 36 return
          </CharString>
          <CharString index="39">
            -12 -59 callsubr
            return
          </CharString>
          <CharString index="40">
            78 callsubr
            -45 -54 hhcurveto
            -54 -27 45 44 -6 hvcurveto
            return
          </CharString>
          <CharString index="41">
            rmoveto
            79 55 60 105 104 -55 56 -79 -79 -55 -56 -104 -105 55 -60 79 hvcurveto
            32 vmoveto
            -54 -41 48 85 86 41 42 54 54 41 -42 -86 -85 -41 -48 -54 hvcurveto
            endchar
          </CharString>
          <CharString index="42">
            163 hmoveto
            45 300 hlineto
            109 66 73 41 80 hhcurveto
            38 18 -5 -12 35 hvcurveto
            return
          </CharString>
          <CharString index="43">
            -679 rmoveto
            -118 -80 119 183 182 80 115 118 118 80 -115 -182 -183 -80 -119 -118 hvcurveto
            hintmask 11110100
            -87 callsubr
            hintmask 11111000
            -27 callgsubr
            hintmask 11110100
            -22 callsubr
          </CharString>
          <CharString index="44">
            -119 -107 -98 -155 hvcurveto
            47 hmoveto
            121 81 93 101 50 50 -20 -51 54 vhcurveto
            -267 vlineto
            -56 -53 -56 -32 -56 hhcurveto
            -107 -64 85 127 hvcurveto
            return
          </CharString>
          <CharString index="45">
            hintmask 11001000
            -65 callsubr
            hintmask 10101000
            12 39 rlineto
            hintmask 11001000
            -41 callgsubr
            hintmask 10011000
            -5 118 rlineto
            -38 hlineto
            return
          </CharString>
          <CharString index="46">
            rmoveto
            38 9 41 19 46 vvcurveto
            47 -47 18 -59 3 vhcurveto
            -5 -31 rlineto
            48 -2 25 -10 -30 vvcurveto
            -23 -23 -12 -28 -7 vhcurveto
            -203 -75 -85 callsubr
            endchar
          </CharString>
          <CharString index="47">
            vstem
            72 hmoveto
            454 39 -387 hlineto
            376 418 rlineto
            23 -403 -38 336 vlineto
            -376 -418 rlineto
            return
          </CharString>
          <CharString index="48">
            -49 callsubr
            -12 -20 return
          </CharString>
          <CharString index="49">
            rmoveto
            47 20 32 46 49 vvcurveto
            39 -17 20 -27 -18 -18 -13 -24 -22 18 -10 18 3 3 0 1 3 vhcurveto
            -1 -38 -23 -28 -33 -14 rrcurveto
            endchar
          </CharString>
          <CharString index="50">
            257 86 return
          </CharString>
          <CharString index="51">
            5 -93 rlineto
            37 457 hlineto
            40 11 49 24 60 vvcurveto
            20 -7 18 -12 18 vhcurveto
            endchar
          </CharString>
          <CharString index="52">
            101 57 callsubr
            -101 rlineto
            return
          </CharString>
          <CharString index="53">
            -12 38 -5 -58 callgsubr
            return
          </CharString>
          <CharString index="54">
            278 44 return
          </CharString>
          <CharString index="55">
            10 callgsubr
            178 hmoveto
            22 callgsubr
            -17 -19 -23 -23 17 -18 23 hvcurveto
            endchar
          </CharString>
          <CharString index="56">
            40 290 40 249 40 return
          </CharString>
          <CharString index="57">
            -38 -26 -20 -34 -31 vvcurveto
            -40 26 -25 24 -12 vhcurveto
            -4 vlineto
            return
          </CharString>
          <CharString index="58">
            39 -6 -58 callgsubr
            return
          </CharString>
          <CharString index="59">
            -44 callgsubr
            endchar
          </CharString>
          <CharString index="60">
            97 442 rmoveto
            241 -485 hlineto
            -88 -29 -60 -112 -41 -43 13 16 -32 vhcurveto
            -18 -35 rlineto
            -18 36 50 -14 45 hhcurveto
            143 45 74 118 hvcurveto
            517 -285 vlineto
            return
          </CharString>
          <CharString index="61">
            -12 42 599 42 return
          </CharString>
          <CharString index="62">
            0 39 293 33 255 39 hstem
            102 46 355 48 vstem
            102 hmoveto
            152 hlineto
            201 96 132 200 199 -96 128 -202 hvcurveto
            -151 -294 hlineto
            -77 -4 rlineto
            -29 77 vlineto
            46 -293 rmoveto
            293 164 33 -164 255 72 callgsubr
          </CharString>
          <CharString index="63">
            -62 callgsubr
            278 return
          </CharString>
          <CharString index="64">
            rmoveto
            20 16 16 20 20 -16 15 -20 -20 -15 -15 -20 -20 15 -16 20 hvcurveto
            158 hmoveto
            20 15 16 20 20 -15 -14 callsubr
            return
          </CharString>
          <CharString index="65">
            -114 rmoveto
            -86 callsubr
            -94 callsubr
            hvcurveto
            return
          </CharString>
          <CharString index="66">
            -229 37 192 39 414 39 -12 -20 return
          </CharString>
          <CharString index="67">
            -12 39 426 39 return
          </CharString>
          <CharString index="68">
            rmoveto
            -94 callsubr
            return
          </CharString>
          <CharString index="69">
            hstem
            -57 callsubr
            vstem
            return
          </CharString>
          <CharString index="70">
            40 -7 -21 480 -20 return
          </CharString>
          <CharString index="71">
            -55 callsubr
            38 hlineto
            -95 -10 callsubr
            return
          </CharString>
          <CharString index="72">
            8 61 25 52 vvcurveto
            return
          </CharString>
          <CharString index="73">
            hhcurveto
            47 21 39 38 3 hvcurveto
            -29 hlineto
            -30 -4 -16 -15 -21 hhcurveto
            return
          </CharString>
          <CharString index="74">
            rmoveto
            -202 109 -132 154 154 109 132 202 202 -109 128 -154 -154 -109 -128 -202 vhcurveto
            35 hmoveto
            181 91 119 137 137 91 -119 -181 -181 -91 -122 -137 -137 -91 122 181 vhcurveto
            return
          </CharString>
          <CharString index="75">
            46 vstem
            89 hmoveto
            46 330 330 -330 46 659 -46 -289 -330 289 -46 hlineto
            return
          </CharString>
          <CharString index="76">
            rmoveto
            -12 -29 rlineto
            28 -6 28 -12 -31 vvcurveto
            -27 return
          </CharString>
          <CharString index="77">
            75 hmoveto
            43 362 hlineto
            60 31 28 30 44 hhcurveto
            46 23 -37 -72 hvcurveto
            -343 40 362 vlineto
            60 32 28 30 43 hhcurveto
            47 23 -37 -72 hvcurveto
            -343 43 348 vlineto
            96 -38 48 -66 -53 -30 -31 -54 -35 vhcurveto
            57 -13 -30 28 -53 hhcurveto
            -53 -29 -30 -47 -28 hvcurveto
            -2 hlineto
            return
          </CharString>
          <CharString index="78">
            rmoveto
            97 -38 68 -66 60 vhcurveto
            -26 -24 rlineto
            63 -58 23 -62 -81 vvcurveto
            -80 -23 -62 -63 -58 vhcurveto
            26 -24 rlineto
            66 60 38 68 96 vvcurveto
            endchar
          </CharString>
          <CharString index="79">
            276 702 -90 callsubr
            return
          </CharString>
          <CharString index="80">
            -67 callgsubr
            hstem
            -67 callgsubr
            vstem
            return
          </CharString>
          <CharString index="81">
            -30 rlineto
            64 -35 callsubr
            return
          </CharString>
          <CharString index="82">
            -22 278 rmoveto
            return
          </CharString>
          <CharString index="83">
            539 rmoveto
            47 35 35 51 52 -35 35 -47 -47 -35 -35 -52 -51 35 -35 47 hvcurveto
            26 vmoveto
            -29 -23 24 36 37 23 24 29 29 return
          </CharString>
          <CharString index="84">
            -36 callsubr
            -39 hlineto
            endchar
          </CharString>
          <CharString index="85">
            58 13 39 30 54 vvcurveto
            20 -7 17 -12 18 vhcurveto
            endchar
          </CharString>
          <CharString index="86">
            37 50 41 -30 23 -35 14 vhcurveto
            4 vlineto
            return
          </CharString>
          <CharString index="87">
            hstem
            0 600 48 callgsubr
            return
          </CharString>
          <CharString index="88">
            -53 callgsubr
            hstemhm
            return
          </CharString>
          <CharString index="89">
            252 35 266 33 hstem
            148 42 220 42 vstem
            148 419 rmoveto
            -106 70 -61 82 83 69 61 106 106 -69 61 -83 -82 -70 -61 -106 vhcurveto
            42 hmoveto
            78 45 56 65 65 45 -56 -78 -79 -45 -53 -65 -65 -45 53 79 vhcurveto
            endchar
          </CharString>
          <CharString index="90">
            -3 callsubr
            -38 hlineto
            endchar
          </CharString>
          <CharString index="91">
            rmoveto
            82 31 68 51 6 99 callsubr
            -55 -27 44 44 -6 hvcurveto
            -31 hlineto
            86 callgsubr
            return
          </CharString>
          <CharString index="92">
            -144 -93 rmoveto
            -46 47 -41 73 66 54 -21 callsubr
            return
          </CharString>
          <CharString index="93">
            15 -20 -20 -16 -15 -20 -20 16 -16 20 hvcurveto
            return
          </CharString>
          <CharString index="94">
            rmoveto
            -24 16 -14 20 20 16 14 24 23 -16 14 -20 -20 -16 -14 -23 vhcurveto
            endchar
          </CharString>
          <CharString index="95">
            hstemhm
            -53 callgsubr
            return
          </CharString>
          <CharString index="96">
            vlineto
            -181 -21 -92 -52 -97 vvcurveto
            -83 60 -43 69 51 58 37 37 31 vhcurveto
            4 hlineto
            5 -62 rlineto
            32 hlineto
            -269 114 rmoveto
            72 66 42 164 23 vhcurveto
            -147 vlineto
            -53 -45 -49 -27 -40 hhcurveto
            -58 -38 33 57 hvcurveto
            endchar
          </CharString>
          <CharString index="97">
            138 rlineto
            return
          </CharString>
          <CharString index="98">
            83 callgsubr
            -25 callsubr
            return
          </CharString>
          <CharString index="99">
            85 callgsubr
            138 callgsubr
            return
          </CharString>
          <CharString index="100">
            165 callsubr
            5 12 20 22 hhcurveto
            return
          </CharString>
          <CharString index="101">
            94 callsubr
            55 -2 return
          </CharString>
          <CharString index="102">
            5 -93 rlineto
            37 hlineto
            return
          </CharString>
          <CharString index="103">
            32 119 28 114 32 hstemhm
            357 39 -24 39 hintmask 11101000
            176 return
          </CharString>
          <CharString index="104">
            rmoveto
            40 -74 callsubr
            return
          </CharString>
          <CharString index="105">
            -85 44 -47 67 hvcurveto
            30 vmoveto
            -44 -30 34 68 64 30 35 44 43 30 -35 -64 -68 -30 -34 -43 hvcurveto
            return
          </CharString>
          <CharString index="106">
            551 35 hstem
            186 41 187 41 vstem
            186 260 rmoveto
            41 231 hlineto
            40 40 28 20 40 hhcurveto
            56 23 -30 -63 hvcurveto
            -198 41 203 vlineto
            82 -36 41 -74 -49 -35 -26 return
          </CharString>
          <CharString index="107">
            31 167 30 hstem
            187 31 106 38 vstem
            283 797 rmoveto
            38 10 41 18 46 vvcurveto
            48 -47 18 -59 2 vhcurveto
            -5 -30 rlineto
            48 -3 25 -10 -30 vvcurveto
            -23 -23 -11 -28 -8 vhcurveto
            return
          </CharString>
          <CharString index="108">
            133 90 callsubr
            66 -78 rlineto
            35 hlineto
            -83 114 rlineto
            -39 hlineto
            return
          </CharString>
          <CharString index="109">
            30 5 15 15 22 hhcurveto
            hintmask 11111000
            35 18 -45 49 hhcurveto
            46 22 39 38 2 hvcurveto
            -28 hlineto
            -30 -5 -15 -15 -22 hhcurveto
            hintmask 10111000
            -35 -18 45 -49 hhcurveto
            -46 -22 -39 -38 -2 hvcurveto
            endchar
          </CharString>
          <CharString index="110">
            32 98 31 132 32 hstem
            178 38 163 38 vstem
            216 return
          </CharString>
          <CharString index="111">
            vstem
            123 hmoveto
            45 136 hlineto
            139 131 209 -267 rlineto
            51 hlineto
            -229 294 197 186 rlineto
            -55 hlineto
            -308 -289 rlineto
            -4 528 -45 hlineto
            return
          </CharString>
          <CharString index="112">
            177 hmoveto
            23 17 18 23 23 -17 140 callsubr
            endchar
          </CharString>
          <CharString index="113">
            rmoveto
            40 hlineto
            -92 106 rlineto
            -58 hlineto
            endchar
          </CharString>
          <CharString index="114">
            rmoveto
            25 -21 142 163 rlineto
            42 vlineto
            -142 163 -25 -23 126 -161 rlineto
            return
          </CharString>
          <CharString index="115">
            278 44 62 callsubr
            278 rmoveto
            return
          </CharString>
          <CharString index="116">
            rmoveto
            -54 hlineto
            -91 -138 rlineto
            37 hlineto
            endchar
          </CharString>
          <CharString index="117">
            27 callgsubr
            endchar
          </CharString>
          <CharString index="118">
            63 -42 -21 596 63 0 -20 return
          </CharString>
          <CharString index="119">
            -442 44 442 111 38 -111 104 vlineto
            69 24 40 52 18 19 -4 -10 20 vhcurveto
            12 36 rlineto
            10 -22 -25 6 -23 hhcurveto
            -76 -43 -49 -95 hvcurveto
            return
          </CharString>
          <CharString index="120">
            -59 callgsubr
            endchar
          </CharString>
          <CharString index="121">
            311 38 hstem
            95 410 vstem
            95 311 rmoveto
            410 38 -410 hlineto
            endchar
          </CharString>
          <CharString index="122">
            32 261 32 hstem
            166 39 190 39 vstem
            300 return
          </CharString>
          <CharString index="123">
            32 callsubr
            0 return
          </CharString>
          <CharString index="124">
            -34 -28 56 -48 hhcurveto
            -49 -18 166 callsubr
            return
          </CharString>
          <CharString index="125">
            rmoveto
            227 36 -227 hlineto
            return
          </CharString>
          <CharString index="126">
            93 40 62 77 111 vvcurveto
            62 -24 40 -46 -31 -29 -19 -41 -40 25 -19 35 7 8 1 2 8 vhcurveto
            -3 -88 -41 -54 -80 -39 rrcurveto
            endchar
          </CharString>
          <CharString index="127">
            32 143 29 74 35 hstem
            379 39 vstem
            176 return
          </CharString>
          <CharString index="128">
            -37 callsubr
            hstemhm
            87 44 return
          </CharString>
          <CharString index="129">
            -12 42 255 39 305 42 return
          </CharString>
          <CharString index="130">
            279 44 92 callsubr
            vlineto
            hintmask 10100000
            -657 -279 vlineto
            endchar
          </CharString>
          <CharString index="131">
            11 13 15 vhcurveto
            -16 27 rlineto
            -10 -14 -12 -4 -17 hhcurveto
            -26 -25 17 35 return
          </CharString>
          <CharString index="132">
            rmoveto
            228 36 -228 hlineto
            return
          </CharString>
          <CharString index="133">
            hstem
            186 71 86 71 vstem
            return
          </CharString>
          <CharString index="134">
            -11 callgsubr
            hvcurveto
            return
          </CharString>
          <CharString index="135">
            -151 rmoveto
            66 82 51 66 -16 callgsubr
            -4 -72 rlineto
            -76 vlineto
            36 192 rmoveto
            -34 hlineto
            -166 -201 rlineto
            -20 164 vlineto
            return
          </CharString>
          <CharString index="136">
            113 callsubr
            -3 -32 rlineto
            54 25 callgsubr
          </CharString>
          <CharString index="137">
            120 callgsubr
            hstemhm
            163 45 return
          </CharString>
          <CharString index="138">
            rmoveto
            -228 -36 228 hlineto
            endchar
          </CharString>
          <CharString index="139">
            -200 1000 hstem
            return
          </CharString>
          <CharString index="140">
            -19 callsubr
            -53 callsubr
            hintmask 01100000
            -25 callsubr
            300 -678 44 hlineto
            hintmask 10100000
            657 300 86 return
          </CharString>
          <CharString index="141">
            -67 callgsubr
            -44 callsubr
            -400 rmoveto
            44 635 300 104 callgsubr
            return
          </CharString>
          <CharString index="142">
            33 247 33 hstem
            360 39 vstem
            190 return
          </CharString>
          <CharString index="143">
            38 callgsubr
            hstemhm
            105 45 return
          </CharString>
          <CharString index="144">
            30 4 16 15 21 hhcurveto
            return
          </CharString>
          <CharString index="145">
            82 209 -16 callgsubr
            -4 -98 rlineto
            -161 36 307 -51 vlineto
            -50 -126 -30 -86 rlineto
            -4 hlineto
            -31 86 return
          </CharString>
          <CharString index="146">
            572 138 hstem
            244 145 vstem
            389 140 callgsubr
            endchar
          </CharString>
          <CharString index="147">
            73 36 -20 -41 -41 -31 -17 -43 -40 -36 23 30 -20 hvcurveto
            return
          </CharString>
          <CharString index="148">
            14 25 hhcurveto
            45 19 -21 -31 -35 -28 -27 -65 hvcurveto
            -28 vlineto
            return
          </CharString>
          <CharString index="149">
            21 94 callgsubr
            return
          </CharString>
          <CharString index="150">
            rmoveto
            8 156 rlineto
            50 -38 vlineto
            3 -206 rlineto
            endchar
          </CharString>
          <CharString index="151">
            rmoveto
            300 43 -257 635 -43 hlineto
            return
          </CharString>
          <CharString index="152">
            -86 -657 -279 hlineto
            endchar
          </CharString>
          <CharString index="153">
            72 35 55 45 6 hvcurveto
            return
          </CharString>
          <CharString index="154">
            hstemhm
            92 45 323 44 return
          </CharString>
          <CharString index="155">
            -52 -32 -29 -43 -38 vvcurveto
            return
          </CharString>
          <CharString index="156">
            hvcurveto
            -70 -63 -70 -28 -57 hhcurveto
            -192 -241 rmoveto
            -37 42 51 -25 71 hhcurveto
            137 126 94 return
          </CharString>
          <CharString index="157">
            rlineto
            42 vlineto
            -132 -3 3 153 rlineto
            -42 hlineto
            3 -153 -132 3 rlineto
            -42 vlineto
            132 return
          </CharString>
          <CharString index="158">
            -53 callsubr
            -62 callgsubr
            return
          </CharString>
          <CharString index="159">
            30 hlineto
            36 4 13 20 21 hhcurveto
            return
          </CharString>
          <CharString index="160">
            145 153 callgsubr
            return
          </CharString>
          <CharString index="161">
            0 40 579 40 return
          </CharString>
          <CharString index="162">
            42 629 -20 return
          </CharString>
          <CharString index="163">
            101 callgsubr
            -38 hlineto
            endchar
          </CharString>
          <CharString index="164">
            -16 callgsubr
            75 return
          </CharString>
          <CharString index="165">
            -50 callgsubr
            112 138 105 callgsubr
            49 40 hintmask 10111110
            return
          </CharString>
          <CharString index="166">
            52 47 6 hvcurveto
            -31 hlineto
            -35 -6 -27 -33 -53 hhcurveto
            -53 -27 33 35 -6 hvcurveto
            -31 hlineto
            -47 return
          </CharString>
          <CharString index="167">
            -500 rmoveto
            50 vlineto
            -270 450 rlineto
            -30 hlineto
            return
          </CharString>
          <CharString index="168">
            rmoveto
            50 vlineto
            -570 950 rlineto
            -30 hlineto
            600 return
          </CharString>
          <CharString index="169">
            -12 callsubr
            hintmask 10100000
            -22 return
          </CharString>
          <CharString index="170">
            -53 callsubr
            -12 callsubr
            return
          </CharString>
          <CharString index="171">
            rmoveto
            34 hlineto
            84 -10 callsubr
            -46 hlineto
            return
          </CharString>
          <CharString index="172">
            -62 callgsubr
            -22 return
          </CharString>
          <CharString index="173">
            41 25 -57 53 hhcurveto
            return
          </CharString>
          <CharString index="174">
            226 49 hstem
            80 440 vstem
            80 226 rmoveto
            440 49 -440 hlineto
            endchar
          </CharString>
          <CharString index="175">
            -44 -657 -24 callgsubr
          </CharString>
          <CharString index="176">
            -25 callgsubr
            77 126 callgsubr
            89 46 35 29 202 29 38 43 return
          </CharString>
          <CharString index="177">
            267 vlineto
            60 60 62 28 50 hhcurveto
            118 46 -88 -118 -130 -75 -90 return
          </CharString>
          <CharString index="178">
            163 callgsubr
            23 -31 -31 -29 -23 -42 vhcurveto
            endchar
          </CharString>
          <CharString index="179">
            rmoveto
            2 hlineto
            476 253 rlineto
            4 vlineto
            -476 251 rlineto
            -2 hlineto
            endchar
          </CharString>
          <CharString index="180">
            -19 callgsubr
            -65 44 return
          </CharString>
          <CharString index="181">
            76 callsubr
            hstem
            117 46 return
          </CharString>
          <CharString index="182">
            401 808 rmoveto
            -34 -4 -16 -22 -21 hhcurveto
            return
          </CharString>
          <CharString index="183">
            -21 303 38 279 39 return
          </CharString>
          <CharString index="184">
            657 279 86 return
          </CharString>
          <CharString index="185">
            hlineto
            -44 -6 -27 return
          </CharString>
          <CharString index="186">
            rmoveto
            36 hlineto
            73 69 -16 callgsubr
            73 -69 rlineto
            36 hlineto
            -91 100 rlineto
            -40 hlineto
            return
          </CharString>
          <CharString index="187">
            33 hstem
            264 38 vstem
            264 return
          </CharString>
          <CharString index="188">
            60 hstem
            297 38 vstem
            297 return
          </CharString>
          <CharString index="189">
            32 hstemhm
            178 29 186 29 return
          </CharString>
          <CharString index="190">
            37 -24 38 139 38 -26 38 return
          </CharString>
          <CharString index="191">
            75 hstem
            264 72 vstem
            264 return
          </CharString>
          <CharString index="192">
            hstemhm
            67 47 372 47 return
          </CharString>
          <CharString index="193">
            hstemhm
            125 callgsubr
            return
          </CharString>
          <CharString index="194">
            166 callsubr
            endchar
          </CharString>
          <CharString index="195">
            24 -5 callgsubr
            -24 10 callgsubr
            return
          </CharString>
          <CharString index="196">
            21 -66 callgsubr
            52 31 return
          </CharString>
          <CharString index="197">
            333 rmoveto
            36 hlineto
            65 78 -16 callgsubr
            return
          </CharString>
          <CharString index="198">
            159 338 rmoveto
            37 301 -31 hlineto
            return
          </CharString>
          <CharString index="199">
            -279 678 -86 return
          </CharString>
          <CharString index="200">
            -5 92 rlineto
            -38 hlineto
            return
          </CharString>
          <CharString index="201">
            vhcurveto
            -4 -32 rlineto
            return
          </CharString>
          <CharString index="202">
            657 68 callsubr
          </CharString>
          <CharString index="203">
            -44 -678 -24 callgsubr
          </CharString>
          <CharString index="204">
            500 -24 callgsubr
          </CharString>
          <CharString index="205">
            35 19 -45 48 hhcurveto
            47 21 39 38 3 hvcurveto
            -29 hlineto
            -30 -4 return
          </CharString>
          <CharString index="206">
            hvcurveto
            -31 78 callsubr
            -44 -55 hhcurveto
            return
          </CharString>
          <CharString index="207">
            -196 -21 205 39 426 39 return
          </CharString>
          <CharString index="208">
            -12 166 callgsubr
            hstem
            271 44 return
          </CharString>
          <CharString index="209">
            21 38 callgsubr
            return
          </CharString>
          <CharString index="210">
            29 -29 60 hstemhm
            159 37 return
          </CharString>
          <CharString index="211">
            hstemhm
            67 47 336 45 return
          </CharString>
          <CharString index="212">
            hstem
            277 46 vstem
            return
          </CharString>
          <CharString index="213">
            -29 21 -19 26 hvcurveto
            return
          </CharString>
          <CharString index="214">
            -644 hlineto
            endchar
          </CharString>
          <CharString index="215">
            5 54 rlineto
            2 hlineto
            -40 48 64 -26 49 hhcurveto
            118 105 return
          </CharString>
          <CharString index="216">
            -750 rmoveto
            50 vlineto
            -420 700 rlineto
            -30 hlineto
            450 return
          </CharString>
          <CharString index="217">
            rmoveto
            9 156 rlineto
            50 -38 vlineto
            2 -206 rlineto
            endchar
          </CharString>
          <CharString index="218">
            -21 452 40 return
          </CharString>
          <CharString index="219">
            -344 hlineto
            endchar
          </CharString>
          <CharString index="220">
            rmoveto
            48 13 46 139 callgsubr
            -55 21 -66 3 vhcurveto
            return
          </CharString>
          <CharString index="221">
            576 31 60 28 hstem
            181 31 176 31 vstem
            return
          </CharString>
          <CharString index="222">
            vstem
            62 callgsubr
            return
          </CharString>
          <CharString index="223">
            35 hstem
            60 40 133 41 230 39 vstem
            543 return
          </CharString>
          <CharString index="224">
            167 callgsubr
            hstem
            110 46 return
          </CharString>
          <CharString index="225" raw="1">
            a8769e71 7176786e 0b 
          </CharString>
          <CharString index="226">
            rmoveto
            -47 hlineto
            86 -106 rlineto
            33 hlineto
            return
          </CharString>
          <CharString index="227">
            hstem
            240 120 vstem
            240 return
          </CharString>
          <CharString index="228">
            42 599 42 hstem
            111 46 return
          </CharString>
          <CharString index="229">
            rmoveto
            -57 hlineto
            -93 -106 rlineto
            41 hlineto
            return
          </CharString>
          <CharString index="230">
            -111 rlineto
            33 hlineto
            endchar
          </CharString>
          <CharString index="231">
            86 126 127 return
          </CharString>
          <CharString index="232">
            -3 hvcurveto
            29 hlineto
            return
          </CharString>
          <CharString index="233">
            -21 659 -20 return
          </CharString>
          <CharString index="234">
            -167 hvcurveto
            -39 vlineto
            hintmask 11110100
            178 77 -60 -88 return
          </CharString>
          <CharString index="235">
            124 hstem
            222 46 162 46 vstem
            143 return
          </CharString>
          <CharString index="236">
            rmoveto
            -43 44 70 -47 111 hhcurveto
            122 97 70 return
          </CharString>
          <CharString index="237">
            -250 rmoveto
            50 vlineto
            -120 200 rlineto
            -30 hlineto
            return
          </CharString>
          <CharString index="238">
            166 40 rmoveto
            4 vlineto
            56 44 30 50 83 vvcurveto
            return
          </CharString>
          <CharString index="239">
            -68 callgsubr
            -40 hlineto
            return
          </CharString>
          <CharString index="240">
            -86 -678 -279 hlineto
            endchar
          </CharString>
          <CharString index="241">
            23 -24 -37 -36 -23 -24 return
          </CharString>
          <CharString index="242">
            29 -24 31 31 29 24 return
          </CharString>
          <CharString index="243">
            31 151 callgsubr
            return
          </CharString>
          <CharString index="244">
            21 -55 11 vhcurveto
            endchar
          </CharString>
          <CharString index="245">
            34 22 34 hstemhm
            return
          </CharString>
          <CharString index="246" raw="1">
            0630ef05 63061360 9fa6150b 
          </CharString>
          <CharString index="247">
            19 -23 10 callgsubr
            return
          </CharString>
          <CharString index="248">
            -35 -20 49 -47 hhcurveto
            -47 -21 -43 -38 -3 hvcurveto
            return
          </CharString>
          <CharString index="249">
            35 20 -49 48 hhcurveto
            46 22 43 38 3 hvcurveto
            return
          </CharString>
          <CharString index="250">
            -250 1000 hstem
            280 40 vstem
            280 return
          </CharString>
          <CharString index="251">
            11 callsubr
            hstemhm
            92 44 return
          </CharString>
          <CharString index="252">
            -75 -56 -98 -96 -62 40 42 -42 hvcurveto
            endchar
          </CharString>
          <CharString index="253">
            278 rmoveto
            344 44 112 callsubr
          </CharString>
          <CharString index="254">
            -43 -678 -44 678 -43 return
          </CharString>
          <CharString index="255">
            rmoveto
            113 86 -113 hlineto
            return
          </CharString>
          <CharString index="256">
            hlineto
            -95 -10 callsubr
            -39 hlineto
            return
          </CharString>
          <CharString index="257">
            -300 678 -44 return
          </CharString>
          <CharString index="258">
            239 rmoveto
            -159 return
          </CharString>
          <CharString index="259">
            -203 35 156 return
          </CharString>
          <CharString index="260">
            -279 657 -86 return
          </CharString>
          <CharString index="261">
            hstem
            150 44 return
          </CharString>
          <CharString index="262">
            rmoveto
            48 13 47 return
          </CharString>
          <CharString index="263">
            hstemhm
            299 44 hintmask 10110000
            343 39 rmoveto
            return
          </CharString>
          <CharString index="264">
            19 26 hhcurveto
            28 13 -22 -43 hvcurveto
            -226 return
          </CharString>
          <CharString index="265">
            rmoveto
            40 -28 23 -30 -30 -28 -23 -40 vhcurveto
            return
          </CharString>
          <CharString index="266">
            -160 870 hstem
            114 372 vstem
            return
          </CharString>
          <CharString index="267">
            33 hhcurveto
            77 70 64 108 99 -45 63 return
          </CharString>
          <CharString index="268">
            rmoveto
            32 -28 171 205 -22 20 rlineto
            return
          </CharString>
          <CharString index="269">
            38 hstem
            75 44 352 44 vstem
            280 return
          </CharString>
          <CharString index="270">
            rmoveto
            -40 28 -23 30 30 28 23 40 vhcurveto
            return
          </CharString>
          <CharString index="271">
            678 96 callsubr
          </CharString>
          <CharString index="272">
            rmoveto
            30 hlineto
            36 return
          </CharString>
          <CharString index="273">
            -46 -44 -3 hvcurveto
            return
          </CharString>
          <CharString index="274">
            20 -59 2 vhcurveto
            return
          </CharString>
        <CharString name=".notdef">
          0 39 580 41 hstem
          78 45 352 47 vstem
          78 hmoveto
          444 660 -444 hlineto
          45 -576 rmoveto
          516 vlineto
          147 -260 rlineto
          60 hmoveto
          145 260 rlineto
          -516 vlineto
          -333 -45 rmoveto
          95 164 61 105 -16 callgsubr
          59 -105 93 -164 rlineto
          -156 333 rmoveto
          -54 92 -87 155 rlineto
          284 hlineto
          -86 -155 -53 -92 rlineto
          endchar
        </CharString>
        <CharString name="A">
          21 -66 callgsubr
          hstem
          45 510 vstem
          183 265 -106 callsubr
        </CharString>
        <CharString name="AE">
          0 40 177 38 75 40 249 40 hstem
          321 44 vstem
          159 255 rmoveto
          58 134 34 79 34 75 32 76 rlinecurve
          4 -364 hlineto
          44 -215 rmoveto
          290 163 40 -163 249 214 40 -289 vlineto
          -290 -659 rlineto
          50 hlineto
          93 217 rlineto
          178 -217 268 40 hlineto
          endchar
        </CharString>
        <CharString name="Aacute">
          21 -66 callgsubr
          50 106 hstem
          45 510 115 callsubr
          -120 -444 -106 callsubr
        </CharString>
        <CharString name="Abreve">
          21 -66 callgsubr
          52 32 hstem
          185 33 23 callgsubr
          -232 -550 -106 callsubr
        </CharString>
        <CharString name="Acircumflex">
          21 -66 callgsubr
          122 34 hstem
          45 510 50 callgsubr
          -40 -444 -106 callsubr
        </CharString>
        <CharString name="Adieresis">
          21 -66 callgsubr
          66 118 callgsubr
          379 725 rmoveto
          21 15 14 22 23 -15 14 -21 -21 -16 -14 -23 -22 16 -14 21 hvcurveto
          -158 hmoveto
          21 16 14 22 23 -16 14 -21 -21 -15 -14 -23 -22 15 -14 21 hvcurveto
          -38 -460 -106 callsubr
        </CharString>
        <CharString name="Agrave">
          21 -66 callgsubr
          50 106 hstem
          45 510 vstem
          40 callgsubr
          -114 -444 -106 callsubr
        </CharString>
        <CharString name="Amacron">
          21 -66 callgsubr
          75 36 hstem
          186 228 vstem
          414 770 rmoveto
          -228 -36 228 hlineto
          -231 -469 -106 callsubr
        </CharString>
        <CharString name="Aogonek">
          -205 37 189 -66 callgsubr
          hstem
          441 40 vstem
          183 265 rmoveto
          42 123 26 78 24 69 23 81 rlinecurve
          4 hlineto
          23 -81 23 -69 27 -78 42 -123 rcurveline
          158 -419 rmoveto
          -10 -14 -12 -4 -18 hhcurveto
          -25 -25 17 35 41 32 48 42 27 hvcurveto
          -232 659 rlineto
          -46 hlineto
          -232 -659 rlineto
          46 hlineto
          78 226 rlineto
          261 hlineto
          76 -226 rlineto
          7 hlineto
          -36 -25 -36 -48 -50 vvcurveto
          -55 38 -27 47 21 29 11 13 15 vhcurveto
          endchar
        </CharString>
        <CharString name="Aring">
          21 -66 callgsubr
          41 116 callgsubr
          838 rmoveto
          27 24 -21 -35 -37 -24 -19 -27 -29 -23 19 37 35 23 21 29 hvcurveto
          -138 vmoveto
          45 37 32 50 49 -37 33 -45 -47 -35 -33 -49 -50 35 -32 47 hvcurveto
          -117 -435 -106 callsubr
        </CharString>
        <CharString name="Atilde">
          21 -66 callgsubr
          57 126 callgsubr
          170 29 202 29 vstemhm
          75 callsubr
          hintmask 11101110
          -81 callsubr
          hintmask 11111110
          141 callgsubr
          -247 -543 -106 callsubr
        </CharString>
        <CharString name="B">
          0 38 294 37 252 38 hstemhm
          115 46 290 46 -5 46 hintmask 11110100
          115 hmoveto
          178 hlineto
          149 96 65 127 91 -61 54 -97 14 hvcurveto
          4 vlineto
          hintmask 11111000
          78 20 39 55 69 vvcurveto
          110 -84 50 -133 vhcurveto
          -165 hlineto
          46 -290 rmoveto
          252 106 vlineto
          121 63 -36 -85 -87 -54 -44 -135 hvcurveto
          -101 -331 rmoveto
          294 120 vlineto
          hintmask 11110100
          134 77 -46 -94 -106 -80 -48 -131 hvcurveto
          endchar
        </CharString>
        <CharString name="C">
          -46 callsubr
          hstem
          72 48 -95 callgsubr
          endchar
        </CharString>
        <CharString name="Cacute">
          -46 callsubr
          38 106 hstem
          72 48 -95 callgsubr
          384 484 122 callsubr
          endchar
        </CharString>
        <CharString name="Ccaron">
          -46 callsubr
          38 34 hstem
          72 48 -95 callgsubr
          348 484 -89 callsubr
        </CharString>
        <CharString name="Ccedilla">
          -11 41 599 42 hstem
          72 48 238 39 vstem
          517 111 rmoveto
          -54 -48 -50 -27 -67 hhcurveto
          -142 -90 118 183 183 90 115 145 60 48 -27 -40 35 hvcurveto
          28 30 rlineto
          41 -36 -59 38 -76 hhcurveto
          -169 -11 callgsubr
          -199 103 -130 149 -13 hvcurveto
          -33 -63 rlineto
          77 callgsubr
          -71 callgsubr
          40 -28 18 -32 11 vhcurveto
          22 42 80 3 57 35 48 56 rlinecurve
          endchar
        </CharString>
        <CharString name="Ccircumflex">
          -46 callsubr
          110 34 hstem
          72 48 -95 callgsubr
          194 378 -92 callsubr
          endchar
        </CharString>
        <CharString name="Cdotaccent">
          -46 callsubr
          50 80 hstem
          72 48 183 81 -95 callgsubr
          271 390 rmoveto
          22 19 16 25 23 -19 16 -22 -21 -19 -16 -23 -25 19 -16 21 hvcurveto
          endchar
        </CharString>
        <CharString name="D">
          0 39 581 39 hstem
          96 46 355 -77 callgsubr
          endchar
        </CharString>
        <CharString name="Dcaron">
          0 39 581 39 50 34 hstem
          96 46 355 -77 callgsubr
          134 776 -89 callsubr
        </CharString>
        <CharString name="Dcroat">
          -45 callsubr
        </CharString>
        <CharString name="E">
          0 -51 callsubr
          112 callgsubr
          vstem
          -99 callsubr
          endchar
        </CharString>
        <CharString name="Eacute">
          0 -51 callsubr
          -40 196 hstemhm
          127 46 hintmask 11101000
          -99 callsubr
          hintmask 11011000
          322 156 -35 callgsubr
          endchar
        </CharString>
        <CharString name="Ebreve">
          0 -51 callsubr
          52 32 112 callgsubr
          48 33 vstem
          -99 callsubr
          209 52 rmoveto
          -65 callgsubr
        </CharString>
        <CharString name="Ecaron">
          0 -51 callsubr
          -40 196 -106 34 hstemhm
          127 46 hintmask 11100100
          -99 callsubr
          hintmask 11010100
          286 156 rmoveto
          hintmask 11101100
          -75 -72 rlineto
          -4 hlineto
          hintmask 11010100
          -75 72 rlineto
          -40 hlineto
          hintmask 11101100
          96 -106 rlineto
          42 hlineto
          hintmask 11010100
          96 106 rlineto
          endchar
        </CharString>
        <CharString name="Ecircumflex">
          0 -51 callsubr
          122 34 112 callgsubr
          vstem
          -99 callsubr
          132 50 -92 callsubr
          endchar
        </CharString>
        <CharString name="Edieresis">
          0 -51 callsubr
          66 73 112 callgsubr
          48 73 84 73 vstem
          -99 callsubr
          130 66 -88 callsubr
        </CharString>
        <CharString name="Edotaccent">
          0 -51 callsubr
          62 80 112 callgsubr
          123 80 vstem
          -99 callsubr
          209 62 -72 callsubr
        </CharString>
        <CharString name="Egrave">
          0 -51 callsubr
          50 106 112 callgsubr
          vstem
          -99 callsubr
          206 50 6 callsubr
        </CharString>
        <CharString name="Emacron">
          0 -51 callsubr
          75 36 112 callgsubr
          49 228 vstem
          -99 callsubr
          95 75 25 callsubr
          endchar
        </CharString>
        <CharString name="Eogonek">
          -205 37 168 -51 callsubr
          112 callgsubr
          217 40 vstem
          127 hmoveto
          336 hlineto
          -39 -25 -34 -46 -52 vvcurveto
          -55 38 -27 47 21 29 24 callsubr
          58 50 49 45 9 hvcurveto
          2 40 -354 290 290 40 -290 249 344 40 -390 hlineto
          endchar
        </CharString>
        <CharString name="Eth">
          -45 callsubr
        </CharString>
        <CharString name="Euro">
          -12 38 220 33 77 33 224 38 hstem
          126 48 vstem
          527 107 rmoveto
          -54 -46 -45 -27 -64 hhcurveto
          -106 -69 85 135 -18 hvcurveto
          277 33 -281 hlineto
          -1 14 0 14 15 vvcurveto
          12 0 11 1 11 vhcurveto
          321 33 -318 hlineto
          139 17 73 85 116 hhcurveto
          55 42 -27 -40 36 hvcurveto
          29 27 rlineto
          42 -34 -59 36 -68 hhcurveto
          -140 -95 -99 -163 -20 hvcurveto
          -65 -4 rlineto
          -29 62 vlineto
          -1 -11 0 -12 -12 vvcurveto
          -14 0 -14 1 -14 vhcurveto
          -62 -4 rlineto
          -29 66 vlineto
          -159 21 90 -99 128 hhcurveto
          83 55 36 58 48 hvcurveto
          endchar
        </CharString>
        <CharString name="F">
          21 -21 317 40 262 40 hstem
          150 45 vstem
          150 hmoveto
          45 317 286 40 -286 262 340 40 -385 hlineto
          endchar
        </CharString>
        <CharString name="G">
          22 callsubr
          hstem
          59 48 373 45 vstem
          -102 callsubr
          endchar
        </CharString>
        <CharString name="Gbreve">
          22 callsubr
          40 32 hstem
          59 48 110 32 231 45 vstem
          -102 callsubr
          273 380 rmoveto
          75 34 58 46 6 hvcurveto
          -33 hlineto
          -35 -6 -25 -37 -51 hhcurveto
          -52 -25 37 35 -6 hvcurveto
          -32 hlineto
          -46 6 33 -58 76 hhcurveto
          endchar
        </CharString>
        <CharString name="Gcaron">
          22 callsubr
          38 34 hstem
          59 48 373 45 vstem
          -102 callsubr
          350 484 -89 callsubr
        </CharString>
        <CharString name="Gcircumflex">
          22 callsubr
          110 34 hstem
          59 48 373 45 vstem
          -102 callsubr
          196 378 -92 callsubr
          endchar
        </CharString>
        <CharString name="Gdotaccent">
          22 callsubr
          50 80 hstem
          59 48 185 80 108 45 vstem
          -102 callsubr
          273 390 -72 callsubr
        </CharString>
        <CharString name="H">
          21 -21 330 40 289 -20 hstem
          89 46 330 -32 callsubr
          endchar
        </CharString>
        <CharString name="Hbar">
          21 -21 330 40 125 33 -33 164 hstemhm
          89 46 330 46 hintmask 11101100
          465 370 rmoveto
          -330 125 330 hlineto
          121 33 rmoveto
          -75 hlineto
          156 callgsubr
          -330 vlineto
          156 callgsubr
          vlineto
          -75 -4 rlineto
          -29 75 -495 46 330 330 -330 46 495 75 vlineto
          endchar
        </CharString>
        <CharString name="Hcircumflex">
          21 -21 330 40 289 -20 142 34 hstem
          89 46 330 -32 callsubr
          134 50 -92 callsubr
          endchar
        </CharString>
        <CharString name="I">
          54 callsubr
          105 callsubr
          -91 callgsubr
          endchar
        </CharString>
        <CharString name="Iacute">
          54 callsubr
          50 106 105 callsubr
          -91 callgsubr
          306 775 -35 callgsubr
          endchar
        </CharString>
        <CharString name="Icircumflex">
          54 callsubr
          122 34 105 callsubr
          -91 callgsubr
          116 669 -92 callsubr
          endchar
        </CharString>
        <CharString name="Idieresis">
          54 callsubr
          66 73 hstemhm
          185 73 19 46 19 73 hintmask 11001000
          -91 callgsubr
          hintmask 11111100
          114 685 -88 callsubr
        </CharString>
        <CharString name="Idotaccent">
          54 callsubr
          62 80 hstemhm
          260 80 -63 46 hintmask 11001000
          -91 callgsubr
          hintmask 11110000
          193 681 -72 callsubr
        </CharString>
        <CharString name="Igrave">
          54 callsubr
          50 106 105 callsubr
          -91 callgsubr
          190 669 6 callsubr
        </CharString>
        <CharString name="Imacron">
          54 callsubr
          75 36 105 callsubr
          -91 callgsubr
          79 694 25 callsubr
          endchar
        </CharString>
        <CharString name="Iogonek">
          -205 37 168 40 579 40 hstemhm
          224 39 14 46 hintmask 11101000
          107 hmoveto
          hintmask 11111000
          178 hlineto
          -33 -34 -28 -35 -54 vvcurveto
          -55 37 -27 47 22 28 24 callsubr
          44 25 34 35 38 hvcurveto
          170 40 hlineto
          hintmask 11101000
          -170 579 170 40 -386 -40 170 -579 -170 hlineto
          endchar
        </CharString>
        <CharString name="Itilde">
          54 callsubr
          57 126 callgsubr
          170 29 78 46 78 29 hintmask 11011110
          -91 callgsubr
          hintmask 11111110
          252 676 -33 callgsubr
          hintmask 11011110
          -81 callsubr
          hintmask 11111110
          97 callgsubr
        </CharString>
        <CharString name="J">
          -12 41 592 39 0 callgsubr
          endchar
        </CharString>
        <CharString name="Jcircumflex">
          -12 41 592 39 121 34 0 callgsubr
          113 585 -92 callsubr
          endchar
        </CharString>
        <CharString name="K">
          66 callgsubr
          hstem
          115 47 5 callgsubr
          endchar
        </CharString>
        <CharString name="L">
          0 53 callgsubr
          -45 callgsubr
          endchar
        </CharString>
        <CharString name="Lacute">
          0 40 619 -20 70 106 154 callsubr
          -45 callgsubr
          150 156 rmoveto
          -58 hlineto
          -92 -106 rlineto
          41 hlineto
          endchar
        </CharString>
        <CharString name="Lcaron">
          0 53 callgsubr
          196 37 -45 callgsubr
          268 -142 110 callsubr
        </CharString>
        <CharString name="Ldot">
          0 40 256 95 268 124 callgsubr
          176 94 -45 callgsubr
          267 -363 rmoveto
          26 21 18 29 30 -21 18 -26 -26 -21 -18 -30 -29 21 -18 26 hvcurveto
          endchar
        </CharString>
        <CharString name="Lslash">
          0 53 callgsubr
          vstem
          194 40 rmoveto
          226 vlineto
          237 123 rlineto
          40 vlineto
          -237 -123 rlineto
          353 -44 -374 vlineto
          -85 -45 rlineto
          -40 vlineto
          85 45 rlineto
          -245 389 40 vlineto
          endchar
        </CharString>
        <CharString name="M">
          21 -21 180 55 374 50 hstem
          91 42 333 -36 callgsubr
          endchar
        </CharString>
        <CharString name="N">
          0 144 callsubr
          328 44 hintmask 01011100
          47 callgsubr
          hintmask 01101100
          -79 callgsubr
          hintmask 10011100
          -69 callgsubr
          endchar
        </CharString>
        <CharString name="Nacute">
          0 11 callsubr
          70 106 hstemhm
          92 44 328 44 hintmask 01011110
          47 callgsubr
          hintmask 01101110
          -79 callgsubr
          hintmask 10011110
          -69 callgsubr
          327 156 -35 callgsubr
          endchar
        </CharString>
        <CharString name="Ncaron">
          0 11 callsubr
          70 34 hstemhm
          92 44 328 44 hintmask 01011110
          47 callgsubr
          hintmask 01101110
          -79 callgsubr
          hintmask 10011110
          -69 callgsubr
          291 156 -89 callsubr
        </CharString>
        <CharString name="Ntilde">
          0 11 callsubr
          77 126 callgsubr
          92 44 40 29 202 29 28 44 hintmask 0101011101000000
          47 callgsubr
          hintmask 0110011101000000
          -79 callgsubr
          hintmask 1001011101000000
          -69 callgsubr
          hintmask 0101111111000000
          273 57 -33 callgsubr
          hintmask 0101011101000000
          -81 callsubr
          hintmask 0101111111000000
          97 callgsubr
        </CharString>
        <CharString name="O">
          -46 callsubr
          -89 callgsubr
          endchar
        </CharString>
        <CharString name="OE">
          0 40 290 40 251 39 hstem
          41 47 231 45 vstem
          41 332 rmoveto
          -200 90 -132 170 vhcurveto
          288 40 -225 290 164 40 -164 251 215 39 -278 hlineto
          -170 -90 -128 -200 hvcurveto
          47 hmoveto
          172 64 117 144 vhcurveto
          23 -582 -23 hlineto
          -144 -64 121 172 hvcurveto
          endchar
        </CharString>
        <CharString name="Oacute">
          -46 callsubr
          38 106 -89 callgsubr
          113 785 -35 callgsubr
          endchar
        </CharString>
        <CharString name="Ocircumflex">
          -46 callsubr
          110 34 -89 callgsubr
          -77 679 -92 callsubr
          endchar
        </CharString>
        <CharString name="Odieresis">
          -46 callsubr
          54 73 hstem
          54 48 83 73 84 73 83 48 vstem
          -106 callgsubr
          -79 695 -88 callsubr
        </CharString>
        <CharString name="Ograve">
          -46 callsubr
          38 106 -89 callgsubr
          -3 679 6 callsubr
        </CharString>
        <CharString name="Ohorn">
          -46 callsubr
          86 callsubr
          -43 40 hintmask 11110000
          300 30 rmoveto
          -118 -80 119 183 182 80 115 118 118 80 -115 -182 -183 -80 -119 -118 hvcurveto
          hintmask 11101000
          -87 callsubr
          hintmask 11110000
          -27 callgsubr
          hintmask 11101000
          -22 callsubr
        </CharString>
        <CharString name="Ohungarumlaut">
          -46 callsubr
          38 106 -89 callgsubr
          -56 679 11 callgsubr
        </CharString>
        <CharString name="Omacron">
          -46 callsubr
          63 36 hstem
          54 48 84 228 84 48 vstem
          -106 callgsubr
          -114 704 25 callsubr
          endchar
        </CharString>
        <CharString name="Oslash">
          -12 42 -11 -21 631 42 -10 -20 86 callsubr
          hintmask 10101100
          455 530 rmoveto
          27 -50 16 -68 -80 vvcurveto
          -183 -80 -119 -118 -54 -46 25 45 -34 vhcurveto
          -21 32 rmoveto
          -27 51 -16 68 81 vvcurveto
          182 80 115 118 54 46 -24 -43 34 vhcurveto
          hintmask 10011100
          109 99 rmoveto
          hintmask 01101100
          -29 21 -55 -81 rlineto
          45 -41 -55 25 -63 hhcurveto
          -144 -102 -131 -208 -100 23 -82 40 -60 hvcurveto
          -62 -92 rlineto
          hintmask 10011100
          28 -21 57 84 rlineto
          -47 42 55 -26 63 hhcurveto
          144 102 135 209 99 -23 82 -40 58 hvcurveto
          endchar
        </CharString>
        <CharString name="Otilde">
          70 callgsubr
          hintmask 11011111
          -106 callgsubr
          hintmask 11111111
          59 686 -33 callgsubr
          hintmask 11011111
          -81 callsubr
          hintmask 11111111
          97 callgsubr
        </CharString>
        <CharString name="P">
          21 -21 283 39 298 39 hstem
          118 46 321 48 vstem
          118 hmoveto
          46 283 134 hlineto
          147 88 63 129 136 -88 48 -147 hvcurveto
          -180 hlineto
          46 -337 rmoveto
          298 122 vlineto
          134 65 -34 -111 -108 -64 -45 -135 hvcurveto
          endchar
        </CharString>
        <CharString name="Q">
          -153 43 99 39 604 40 hstem
          57 47 392 46 vstem
          104 332 rmoveto
          182 76 118 120 119 77 -118 -182 -182 -77 -122 -119 -120 -76 122 182 vhcurveto
          425 -434 rmoveto
          -5 -12 -15 -3 -20 hhcurveto
          -82 -53 36 63 -22 hvcurveto
          130 15 87 132 196 vvcurveto
          208 -98 132 -144 -145 -98 -132 -208 -195 87 -132 130 -16 vhcurveto
          -80 29 64 -62 109 hhcurveto
          22 19 3 6 21 hvcurveto
          endchar
        </CharString>
        <CharString name="R">
          21 74 callsubr
          312 47 vstem
          163 341 -55 callgsubr
          242 -341 rmoveto
          -182 306 rlineto
          -82 callsubr
          endchar
        </CharString>
        <CharString name="Racute">
          21 76 callsubr
          50 106 119 callgsubr
          418 815 122 callsubr
          -146 -368 -55 callgsubr
          242 -341 rmoveto
          -182 306 rlineto
          -82 callsubr
          endchar
        </CharString>
        <CharString name="Rcaron">
          21 76 callsubr
          50 34 119 callgsubr
          327 709 rmoveto
          96 106 rlineto
          -40 hlineto
          -75 -72 rlineto
          -4 hlineto
          -75 72 rlineto
          -40 hlineto
          96 -106 rlineto
          -122 -368 -55 callgsubr
          242 -341 rmoveto
          -182 306 rlineto
          -82 callsubr
          endchar
        </CharString>
        <CharString name="S">
          -12 121 callsubr
          326 -101 callgsubr
          endchar
        </CharString>
        <CharString name="Sacute">
          -46 callsubr
          38 106 hstem
          111 46 326 -101 callgsubr
          320 696 rmoveto
          -58 hlineto
          -92 -106 rlineto
          41 hlineto
          endchar
        </CharString>
        <CharString name="Scaron">
          -46 callsubr
          38 34 hstem
          111 46 326 -101 callgsubr
          284 696 -89 callsubr
        </CharString>
        <CharString name="Scircumflex">
          -46 callsubr
          110 34 hstem
          111 46 326 -101 callgsubr
          130 590 -92 callsubr
          endchar
        </CharString>
        <CharString name="T">
          21 -21 619 40 105 callsubr
          -12 callgsubr
          endchar
        </CharString>
        <CharString name="Tcaron">
          21 -21 619 40 50 34 105 callsubr
          -12 callgsubr
          99 196 -89 callsubr
        </CharString>
        <CharString name="Thorn">
          21 -21 166 39 298 39 -39 156 hstemhm
          118 46 321 48 hintmask 11101100
          118 hmoveto
          46 166 134 hlineto
          147 88 63 129 135 -88 49 -147 hvcurveto
          -134 hlineto
          hintmask 11011100
          117 -46 vlineto
          46 -454 rmoveto
          hintmask 11101100
          298 122 vlineto
          134 65 -35 -110 -108 -64 -45 -135 hvcurveto
          endchar
        </CharString>
        <CharString name="U">
          -25 callgsubr
          hstem
          89 46 333 43 vstem
          -103 callsubr
          endchar
        </CharString>
        <CharString name="Uacute">
          -25 callgsubr
          70 106 hstem
          89 46 333 43 vstem
          -103 callsubr
          324 156 -35 callgsubr
          endchar
        </CharString>
        <CharString name="Ubreve">
          -25 callgsubr
          72 32 hstem
          89 46 50 33 250 43 vstem
          -103 callsubr
          211 52 rmoveto
          -65 callgsubr
        </CharString>
        <CharString name="Ucircumflex">
          -25 callgsubr
          142 34 hstem
          89 46 333 43 vstem
          -103 callsubr
          134 50 -92 callsubr
          endchar
        </CharString>
        <CharString name="Udieresis">
          -25 callgsubr
          86 73 hstem
          89 46 50 73 84 73 53 43 vstem
          -103 callsubr
          132 66 -88 callsubr
        </CharString>
        <CharString name="Ugrave">
          -25 callgsubr
          70 106 hstem
          89 46 333 43 vstem
          -103 callsubr
          208 50 6 callsubr
        </CharString>
        <CharString name="Uhorn">
          -25 callgsubr
          hstem
          89 46 333 43 61 41 vstem
          558 767 -96 callgsubr
        </CharString>
        <CharString name="Uhungarumlaut">
          -25 callgsubr
          70 106 hstem
          89 46 333 43 vstem
          -103 callsubr
          155 50 11 callgsubr
        </CharString>
        <CharString name="Umacron">
          -25 callgsubr
          95 36 hstem
          89 46 51 228 54 43 vstem
          -103 callsubr
          97 75 25 callsubr
          endchar
        </CharString>
        <CharString name="Uogonek">
          -205 37 157 41 629 -20 hstem
          89 46 108 40 185 43 vstem
          89 247 rmoveto
          -171 71 -90 149 3 vhcurveto
          -30 -30 -36 -30 -52 vvcurveto
          -55 38 -27 47 21 29 24 callsubr
          40 39 50 65 29 hvcurveto
          70 31 54 68 145 vvcurveto
          412 -43 -407 vlineto
          -170 -80 -52 -89 -89 -75 52 170 vhcurveto
          407 -46 vlineto
          endchar
        </CharString>
        <CharString name="Uring">
          -25 callgsubr
          61 26 112 26 hstem
          89 46 83 30 103 31 86 43 vstem
          -103 callsubr
          211 41 7 callgsubr
        </CharString>
        <CharString name="Utilde">
          69 callsubr
          hintmask 11011111
          -103 callsubr
          hintmask 11111111
          270 57 -33 callgsubr
          hintmask 11011111
          -81 callsubr
          hintmask 11111111
          97 callgsubr
        </CharString>
        <CharString name="V">
          0 53 606 -20 hstem
          59 482 vstem
          276 hmoveto
          50 hlineto
          215 659 rlineto
          -46 hlineto
          -122 -385 -25 -80 -18 -61 -27 -80 rlinecurve
          -4 hlineto
          -27 80 -17 61 -25 80 -122 385 rcurveline
          -49 hlineto
          endchar
        </CharString>
        <CharString name="W">
          52 callgsubr
          hstem
          14 572 -98 callsubr
          endchar
        </CharString>
        <CharString name="Wacute">
          52 callgsubr
          69 106 hstem
          14 572 -98 callsubr
          399 155 -35 callgsubr
          endchar
        </CharString>
        <CharString name="Wcircumflex">
          52 callgsubr
          141 34 hstem
          14 572 -98 callsubr
          209 49 -92 callsubr
          endchar
        </CharString>
        <CharString name="Wdieresis">
          52 callgsubr
          85 73 hstem
          185 73 84 73 -98 callsubr
          207 65 -88 callsubr
        </CharString>
        <CharString name="Wgrave">
          52 callgsubr
          69 106 hstem
          14 572 -98 callsubr
          283 49 6 callsubr
        </CharString>
        <CharString name="X">
          66 callgsubr
          hstem
          75 450 vstem
          75 hmoveto
          47 hlineto
          116 202 18 33 17 32 21 40 rlinecurve
          4 hlineto
          24 -40 19 -32 18 -33 116 -202 rcurveline
          50 hlineto
          -199 339 185 320 rlineto
          -47 hlineto
          -109 -194 -17 -30 -13 -24 -19 -36 rlinecurve
          -4 hlineto
          -22 36 -14 24 -18 30 -109 194 rcurveline
          -50 hlineto
          185 -318 rlineto
          endchar
        </CharString>
        <CharString name="Y">
          66 callgsubr
          105 callsubr
          -99 callgsubr
          endchar
        </CharString>
        <CharString name="Yacute">
          66 callgsubr
          70 106 105 callsubr
          -99 callgsubr
          136 573 -35 callgsubr
          endchar
        </CharString>
        <CharString name="Ycircumflex">
          66 callgsubr
          142 34 105 callsubr
          -99 callgsubr
          -54 467 -92 callsubr
          endchar
        </CharString>
        <CharString name="Ydieresis">
          66 callgsubr
          86 73 hstemhm
          185 73 19 46 19 73 hintmask 11101000
          -99 callgsubr
          hintmask 11111100
          -56 483 -88 callsubr
        </CharString>
        <CharString name="Ygrave">
          66 callgsubr
          70 106 105 callsubr
          -99 callgsubr
          20 467 6 callsubr
        </CharString>
        <CharString name="Z">
          0 40 581 39 hstem
          70 465 vstem
          -56 callgsubr
          endchar
        </CharString>
        <CharString name="Zacute">
          0 40 581 39 -39 194 hstemhm
          70 465 hintmask 11010000
          -56 callgsubr
          hintmask 10110000
          359 787 -35 callgsubr
          endchar
        </CharString>
        <CharString name="Zcaron">
          0 40 581 39 -39 194 -106 34 hstemhm
          70 465 hintmask 11001000
          -56 callgsubr
          hintmask 10101000
          323 787 rmoveto
          hintmask 11011000
          -75 -72 rlineto
          -4 hlineto
          hintmask 10101000
          -75 72 rlineto
          -40 hlineto
          hintmask 11011000
          96 -106 rlineto
          42 hlineto
          hintmask 10101000
          96 106 rlineto
          endchar
        </CharString>
        <CharString name="Zdotaccent">
          0 40 581 39 61 80 hstem
          276 80 vstem
          -56 callgsubr
          246 693 -72 callsubr
        </CharString>
        <CharString name="a">
          -54 callsubr
          47 callsubr
          hintmask 10111000
          -97 callsubr
          hintmask 01111000
          -104 callgsubr
          hintmask 10111000
          -104 callsubr
          endchar
        </CharString>
        <CharString name="a.a">
          -12 17 callgsubr
          336 45 hintmask 10101100
          -107 callsubr
          hintmask 01011100
          -75 callsubr
          hintmask 10101100
          -100 callsubr
          endchar
        </CharString>
        <CharString name="a.supa">
          -48 callgsubr
        </CharString>
        <CharString name="a.sups">
          -57 callgsubr
        </CharString>
        <CharString name="aacute">
          -54 callsubr
          47 callsubr
          hintmask 10111000
          -97 callsubr
          hintmask 01111000
          -104 callgsubr
          hintmask 10111000
          -104 callsubr
          269 588 -30 callgsubr
          endchar
        </CharString>
        <CharString name="aacute.a">
          -12 17 callgsubr
          336 45 hintmask 10101100
          -107 callsubr
          hintmask 01011100
          -75 callsubr
          hintmask 10101100
          -100 callsubr
          326 471 9 callsubr
        </CharString>
        <CharString name="abreve">
          -54 callsubr
          84 32 hstemhm
          92 45 60 33 174 33 23 44 hintmask 10111001
          -97 callsubr
          hintmask 01111001
          -104 callgsubr
          hintmask 10111001
          -104 callsubr
          hintmask 10111111
          180 454 rmoveto
          82 32 -63 callgsubr
          31 -69 83 hhcurveto
          endchar
        </CharString>
        <CharString name="abreve.a">
          -68 callsubr
          116 32 hstemhm
          67 47 70 32 174 33 27 45 hintmask 1010110010000000
          -107 callsubr
          hintmask 0101110010000000
          -75 callsubr
          hintmask 1010110010000000
          -100 callsubr
          hintmask 1010111110000000
          236 337 rmoveto
          83 32 69 52 5 -73 callgsubr
          -32 hlineto
          -52 5 137 callgsubr
        </CharString>
        <CharString name="acircumflex">
          -54 callsubr
          181 37 47 callsubr
          hintmask 10101100
          -97 callsubr
          hintmask 01101100
          -104 callgsubr
          hintmask 10101100
          -104 callsubr
          65 450 rmoveto
          38 hlineto
          hintmask 10111100
          95 callgsubr
          endchar
        </CharString>
        <CharString name="acircumflex.a">
          -68 callsubr
          213 37 104 callsubr
          hintmask 10100110
          -107 callsubr
          hintmask 01010110
          -75 callsubr
          hintmask 10100110
          -100 callsubr
          122 333 rmoveto
          37 hlineto
          hintmask 10101110
          75 -23 callsubr
        </CharString>
        <CharString name="acute">
          39 callsubr
        </CharString>
        <CharString name="adieresis">
          -54 callsubr
          106 83 hstemhm
          92 45 52 78 99 79 15 44 hintmask 10101001
          -97 callsubr
          hintmask 01101001
          -104 callgsubr
          hintmask 10101001
          -104 callsubr
          hintmask 10111111
          91 476 rmoveto
          23 16 18 23 23 -16 140 callsubr
          178 hmoveto
          -13 callgsubr
          -24 -18 callgsubr
          24 hvcurveto
          endchar
        </CharString>
        <CharString name="adieresis.a">
          -68 callsubr
          138 83 hstemhm
          67 47 61 79 99 79 18 45 hintmask 1010010010000000
          -107 callsubr
          hintmask 0101010010000000
          -75 callsubr
          hintmask 1010010010000000
          -100 callsubr
          hintmask 1010111110000000
          148 359 rmoveto
          -13 callgsubr
          -24 -18 callgsubr
          24 hvcurveto
          5 callsubr
        </CharString>
        <CharString name="ae">
          -12 38 208 34 186 38 hstem
          17 44 218 42 238 40 vstem
          17 124 rmoveto
          -90 53 -46 73 54 59 37 62 56 vhcurveto
          -62 30 48 -37 69 hhcurveto
          55 41 21 20 30 hvcurveto
          -18 31 rlineto
          -17 -27 -36 -17 -43 hhcurveto
          -96 -44 88 120 -1 hvcurveto
          277 hlineto
          2 19 0 14 13 vvcurveto
          113 -45 99 -97 -67 -51 -43 -69 -31 vhcurveto
          63 -15 -42 49 -67 hhcurveto
          -62 -55 -29 -21 -32 hvcurveto
          19 -32 rlineto
          21 29 52 23 40 hhcurveto
          78 26 -65 -88 hvcurveto
          -172 -23 -90 -61 -93 vvcurveto
          304 144 rmoveto
          114 4 50 72 79 hhcurveto
          80 25 -86 -100 hvcurveto
          -498 -144 rmoveto
          75 62 44 156 24 vhcurveto
          -27 vlineto
          -45 7 -42 10 -35 vhcurveto
          -59 -44 -58 -33 -43 hhcurveto
          -54 -36 33 65 hvcurveto
          endchar
        </CharString>
        <CharString name="agrave">
          -54 callsubr
          47 callsubr
          hintmask 10111000
          -97 callsubr
          hintmask 01111000
          -104 callgsubr
          hintmask 10111000
          -104 callsubr
          198 450 80 callgsubr
        </CharString>
        <CharString name="agrave.a">
          -12 17 callgsubr
          336 45 hintmask 10101100
          -107 callsubr
          hintmask 01011100
          -75 callsubr
          hintmask 10101100
          -100 callsubr
          254 333 -22 callgsubr
        </CharString>
        <CharString name="amacron">
          -54 callsubr
          114 36 hstemhm
          92 45 66 227 30 44 hintmask 10111010
          -97 callsubr
          hintmask 01111010
          -104 callgsubr
          hintmask 10111010
          -104 callsubr
          hintmask 10111110
          66 484 18 callsubr
          endchar
        </CharString>
        <CharString name="amacron.a">
          -68 callsubr
          146 36 hstemhm
          67 47 76 227 33 45 hintmask 10101101
          -107 callsubr
          hintmask 01011101
          -75 callsubr
          hintmask 10101101
          -100 callsubr
          hintmask 10101111
          123 367 18 callsubr
          endchar
        </CharString>
        <CharString name="ampersand">
          -12 38 609 36 hstem
          53 45 43 41 163 41 vstem
          246 26 rmoveto
          -80 -68 57 87 65 48 48 57 45 hvcurveto
          47 -84 69 -83 70 -64 rrcurveto
          -42 -40 -49 -29 -54 hhcurveto
          -64 500 rmoveto
          60 34 49 58 53 18 -43 -43 -68 -60 -47 -66 -49 vhcurveto
          -23 49 -14 48 44 vvcurveto
          389 -499 rmoveto
          -37 14 -43 25 -45 37 51 67 38 85 26 90 rrcurveto
          -43 hlineto
          -23 -84 -32 -73 -47 -60 -67 60 -68 82 -46 83 rrcurveto
          74 57 77 56 85 vvcurveto
          69 -39 51 -72 -79 -55 -62 -85 -51 17 -56 28 -56 vhcurveto
          -69 -52 -64 -56 -86 vvcurveto
          -109 84 -70 105 73 56 34 49 48 vhcurveto
          49 -41 47 -27 41 -15 rrcurveto
          endchar
        </CharString>
        <CharString name="aogonek">
          152 callsubr
          38 -17 -21 33 -58 callgsubr
          hstemhm
          92 45 243 38 42 44 hintmask 11001111
          -97 callsubr
          hintmask 10101111
          5 -65 rlineto
          -47 -29 -40 -49 -51 vvcurveto
          -31 callgsubr
          hvcurveto
          hintmask 10011111
          43 36 48 50 25 vhcurveto
          307 vlineto
          103 -53 82 -129 -85 -84 -44 -27 -38 vhcurveto
          20 -33 rlineto
          28 40 70 37 72 hhcurveto
          110 32 -73 -79 1 hvcurveto
          hintmask 11001111
          -104 callsubr
          endchar
        </CharString>
        <CharString name="aogonek.a">
          152 callsubr
          39 -18 -21 33 -58 callgsubr
          -12 -20 hstemhm
          67 47 256 38 42 45 hintmask 1100101110000000
          -107 callsubr
          hintmask 1010101110000000
          5 -64 rlineto
          -52 -38 -35 -40 -51 vvcurveto
          -54 36 -27 45 22 28 10 13 15 vhcurveto
          -16 26 rlineto
          -10 -13 -12 -4 -18 hhcurveto
          -25 -24 18 34 hvcurveto
          hintmask 1001011110000000
          43 31 39 56 34 vhcurveto
          480 -37 vlineto
          hintmask 1100101110000000
          -100 callsubr
          endchar
        </CharString>
        <CharString name="approxequal">
          164 38 52 38 76 161 callgsubr
          369 -37 callgsubr
          31 -216 -37 callgsubr
          endchar
        </CharString>
        <CharString name="aring">
          -54 callsubr
          47 26 121 26 hstemhm
          92 45 98 29 105 30 61 44 hintmask 1011111110000000
          -97 callsubr
          hintmask 0111111110000000
          -104 callgsubr
          hintmask 1011111110000000
          -104 callsubr
          180 417 rmoveto
          47 35 35 51 52 -35 35 -47 -47 -35 -35 -52 -51 35 -35 47 hvcurveto
          26 vmoveto
          -29 -24 24 36 37 24 24 29 29 134 callsubr
          -29 hvcurveto
          endchar
        </CharString>
        <CharString name="aring.a">
          -68 callsubr
          79 26 121 26 hstemhm
          67 47 107 30 105 30 64 45 hintmask 1010111111000000
          -107 callsubr
          hintmask 0101111111000000
          -75 callsubr
          hintmask 1010111111000000
          -100 callsubr
          236 300 rmoveto
          47 36 35 51 52 -36 35 -47 -46 -36 -35 -52 -51 36 -35 46 hvcurveto
          26 vmoveto
          -29 -23 24 36 37 23 24 29 30 134 callsubr
          -30 hvcurveto
          endchar
        </CharString>
        <CharString name="arrowdown">
          -24 550 hstem
          281 38 vstem
          302 -24 rmoveto
          264 269 -27 26 -220 -231 rlineto
          486 -38 -486 vlineto
          -220 231 -27 -26 264 -269 rlineto
          endchar
        </CharString>
        <CharString name="arrowup">
          -24 550 hstem
          281 38 vstem
          298 526 rmoveto
          -264 -269 27 -26 220 231 rlineto
          -486 38 486 vlineto
          220 -231 27 26 -264 269 rlineto
          endchar
        </CharString>
        <CharString name="asciicircum">
          626 44 hstem
          126 348 vstem
          126 290 rmoveto
          43 hlineto
          78 203 51 133 -16 callgsubr
          51 -133 78 -203 rlineto
          43 hlineto
          -151 380 rlineto
          -46 hlineto
          endchar
        </CharString>
        <CharString name="asciitilde">
          266 161 callgsubr
          267 -37 callgsubr
          endchar
        </CharString>
        <CharString name="asterisk">
          123 427 hstem
          281 38 vstem
          177 123 rmoveto
          123 169 123 -169 29 21 -116 171 168 71 -11 30 -171 -61 -6 195 rlineto
          -32 hlineto
          -6 -195 -171 61 -11 -30 168 -71 -116 -171 rlineto
          endchar
        </CharString>
        <CharString name="asterisk.a">
          338 374 hstem
          281 38 vstem
          196 338 rmoveto
          104 148 104 -148 29 20 -97 152 148 57 -11 30 -151 -48 -6 163 rlineto
          -32 hlineto
          -6 -165 -151 50 -11 -30 148 -57 -97 -152 rlineto
          endchar
        </CharString>
        <CharString name="at">
          -143 36 195 36 471 116 callsubr
          396 rmoveto
          133 -63 101 -131 -165 -124 -137 -244 -250 126 -142 67 callgsubr
          135 218 221 109 128 137 114 46 -89 -108 hvcurveto
          -14 -11 callsubr
        </CharString>
        <CharString name="at.case">
          -14 36 144 36 434 116 callsubr
          472 rmoveto
          110 -62 89 -131 -166 -124 -124 -220 -218 126 -123 67 callgsubr
          115 187 197 110 115 137 113 46 -75 -87 hvcurveto
          -12 -11 callsubr
        </CharString>
        <CharString name="atilde">
          -54 callsubr
          89 138 callsubr
          92 45 55 31 188 30 19 44 hintmask 1010110010000000
          -97 callsubr
          hintmask 0110110010000000
          -104 callgsubr
          hintmask 1010110010000000
          -104 callsubr
          hintmask 1010111010000000
          55 459 rmoveto
          31 hlineto
          36 4 12 20 22 hhcurveto
          hintmask 1011110110000000
          41 callgsubr
          -5 -12 -21 -22 hhcurveto
          hintmask 1010111010000000
          -34 -27 56 -48 hhcurveto
          -49 -18 -46 -44 -4 hvcurveto
          endchar
        </CharString>
        <CharString name="atilde.a">
          -68 callsubr
          121 138 callsubr
          67 47 65 30 189 30 22 45 hintmask 1010011101000000
          -107 callsubr
          hintmask 0101011101000000
          -75 callsubr
          hintmask 1010011101000000
          -100 callsubr
          112 342 -7 callsubr
          hintmask 1010111111000000
          36 25 -56 48 hhcurveto
          49 19 -26 callgsubr
          hintmask 1010011101000000
          -34 -27 56 -49 hhcurveto
          -48 57 callgsubr
        </CharString>
        <CharString name="b">
          -12 92 callgsubr
          105 45 336 47 hintmask 01111100
          105 hmoveto
          37 hlineto
          hintmask 10111100
          108 callsubr
          96 163 149 -68 96 -136 -62 -68 -34 -50 -52 hvcurveto
          3 103 rlineto
          208 -45 vlineto
          45 -621 rmoveto
          70 callsubr
          -103 -40 -62 20 51 -56 hvcurveto
          endchar
        </CharString>
        <CharString name="b.sups">
          108 callgsubr
          182 260 rmoveto
          33 hlineto
          4 31 rlineto
          2 hlineto
          -24 31 37 -15 160 callsubr
          -90 -40 -40 -21 -26 -33 hvcurveto
          2 60 rlineto
          133 -41 vlineto
          41 -408 rmoveto
          179 vlineto
          32 36 35 128 callgsubr
          -34 10 27 -34 hvcurveto
          endchar
        </CharString>
        <CharString name="backslash">
          159 callsubr
          441 -160 rmoveto
          45 hlineto
          -327 870 rlineto
          -45 hlineto
          endchar
        </CharString>
        <CharString name="bar">
          143 callsubr
          -250 rmoveto
          40 1000 -40 hlineto
          endchar
        </CharString>
        <CharString name="braceleft">
          158 callgsubr
          129 103 37 48 vstem
          269 -24 rmoveto
          -100 61 -28 123 vhcurveto
          52 30 -58 hlineto
          -113 -24 31 71 hvcurveto
          66 7 54 72 vvcurveto
          58 -19 34 -66 12 vhcurveto
          4 vlineto
          66 12 19 34 58 64 -7 68 60 vvcurveto
          71 24 31 113 vhcurveto
          58 30 -52 hlineto
          -123 -61 -28 -100 hvcurveto
          -68 9 -74 -64 vvcurveto
          -40 -25 -40 -124 vhcurveto
          -32 vlineto
          124 25 -40 -40 hvcurveto
          -70 -9 -62 -74 vvcurveto
          endchar
        </CharString>
        <CharString name="braceright">
          158 callgsubr
          284 46 38 102 vstem
          95 -122 rmoveto
          -30 52 vlineto
          124 59 28 100 hvcurveto
          74 -8 62 70 vvcurveto
          40 25 40 123 vhcurveto
          32 vlineto
          -123 -25 40 40 hvcurveto
          64 8 74 68 vvcurveto
          100 -59 28 -124 vhcurveto
          -52 -30 58 hlineto
          113 26 -31 -71 hvcurveto
          -60 -8 -68 -64 vvcurveto
          -58 17 -34 67 -12 vhcurveto
          -4 vlineto
          -67 -12 -17 -34 -58 -72 8 -54 -66 vvcurveto
          -71 -26 -31 -113 vhcurveto
          endchar
        </CharString>
        <CharString name="bracketleft">
          -152 30 800 30 hstem
          240 39 vstem
          240 -152 rmoveto
          265 30 -226 800 226 30 -265 hlineto
          endchar
        </CharString>
        <CharString name="bracketright">
          -152 30 800 30 hstem
          321 39 vstem
          95 -122 rmoveto
          -30 265 860 -265 -30 226 -800 vlineto
          endchar
        </CharString>
        <CharString name="breve">
          576 32 hstem
          180 33 174 33 vstem
          300 576 rmoveto
          82 32 -63 callgsubr
          137 callgsubr
        </CharString>
        <CharString name="brokenbar">
          143 callsubr
          279 rmoveto
          40 471 -40 hlineto
          -530 vmoveto
          -470 40 470 vlineto
          endchar
        </CharString>
        <CharString name="bullet">
          123 278 hstem
          161 278 vstem
          300 123 rmoveto
          71 68 54 85 85 -68 54 -71 -71 -68 -54 -85 -85 68 -54 71 hvcurveto
          endchar
        </CharString>
        <CharString name="c">
          -40 callsubr
          hstem
          87 47 -94 callgsubr
          endchar
        </CharString>
        <CharString name="c.sups">
          252 35 266 33 hstem
          187 41 vstem
          187 419 rmoveto
          -106 68 -61 91 43 39 17 25 30 vhcurveto
          -19 27 rlineto
          -19 -23 -31 -15 -37 hhcurveto
          -72 -48 53 79 78 52 56 70 31 25 -14 -19 22 hvcurveto
          22 28 rlineto
          20 -24 -31 18 -47 hhcurveto
          -86 -75 -61 -106 hvcurveto
          endchar
        </CharString>
        <CharString name="cacute">
          -40 callsubr
          hstem
          87 47 -94 callgsubr
          347 471 rmoveto
          -54 hlineto
          -91 55 callgsubr
          endchar
        </CharString>
        <CharString name="caron">
          572 37 hstem
          185 230 vstem
          280 572 -17 callsubr
        </CharString>
        <CharString name="ccaron">
          -40 callsubr
          80 37 hstem
          87 47 -94 callgsubr
          238 333 rmoveto
          39 42 callgsubr
          -38 hlineto
          -75 -101 rlineto
          -4 hlineto
          -74 101 rlineto
          -38 hlineto
          endchar
        </CharString>
        <CharString name="ccedilla">
          -208 30 167 38 426 39 hstem
          87 47 227 40 vstem
          363 -12 rmoveto
          68 5 58 29 45 43 -23 31 rcurveline
          -40 -43 -54 -29 -65 hhcurveto
          -129 -86 124 callsubr
          88 87 128 59 46 -26 -38 41 hvcurveto
          26 30 rlineto
          38 -40 -53 35 -80 hhcurveto
          -144 -118 -92 -161 -152 101 -91 139 -7 hvcurveto
          -33 -63 rlineto
          39 -42 callgsubr
          endchar
        </CharString>
        <CharString name="ccircumflex">
          -40 callsubr
          181 37 hstem
          87 47 -94 callgsubr
          143 333 rmoveto
          38 hlineto
          74 -23 callsubr
        </CharString>
        <CharString name="cdotaccent">
          -40 callsubr
          104 96 hstem
          87 47 163 95 -94 callgsubr
          257 357 rmoveto
          27 21 19 29 29 -21 87 callgsubr
          123 callgsubr
        </CharString>
        <CharString name="cedilla">
          -208 210 hstem
          328 39 vstem
          261 -74 rmoveto
          77 callgsubr
          -71 callgsubr
          40 -28 18 -32 11 vhcurveto
          29 56 rlineto
          -35 hlineto
          endchar
        </CharString>
        <CharString name="cent">
          80 39 385 39 hstem
          122 46 147 35 vstem
          315 121 rmoveto
          -90 13 -57 73 104 vvcurveto
          104 61 73 86 14 vhcurveto
          158 -329 rmoveto
          -32 -29 -42 -23 -49 -2 rrcurveto
          385 vlineto
          45 -2 35 -20 30 -27 24 28 rcurveline
          -31 30 -41 28 -62 2 rrcurveto
          109 -35 -111 vlineto
          -106 -12 -87 -80 -138 vvcurveto
          -137 81 -82 112 -11 vhcurveto
          -109 35 108 vlineto
          58 2 49 27 39 35 rrcurveto
          endchar
        </CharString>
        <CharString name="circumflex">
          673 37 hstem
          185 230 vstem
          185 572 -17 callgsubr
        </CharString>
        <CharString name="colon">
          -12 130 248 131 120 callsubr
          432 rmoveto
          -42 135 callsubr
          42 41 -29 24 -31 -31 -29 -24 -41 vhcurveto
          -379 vmoveto
          71 callsubr
        </CharString>
        <CharString name="colonmonetary">
          -11 38 586 38 -6 -20 21 -20 hstemhm
          106 48 168 31 -22 31 hintmask 11001100
          343 612 rmoveto
          1 7 7 0 7 hhcurveto
          16 16 -2 -5 14 hvcurveto
          -69 -580 -24 2 -22 5 -20 10 rlinecurve
          -29 19 rmoveto
          -59 48 -33 92 120 vvcurveto
          153 56 105 101 26 vhcurveto
          196 -499 rmoveto
          -41 -48 -40 -27 -54 -5 68 566 rcurveline
          21 -11 19 -17 17 -19 29 27 rcurveline
          -20 24 -28 23 -34 14 14 115 rcurveline
          -31 hlineto
          hintmask 10101100
          -12 -104 rlineto
          hintmask 11001100
          4 -16 -16 2 -17 hhcurveto
          -6 -7 0 -1 -6 hvcurveto
          12 99 rlineto
          -31 hlineto
          hintmask 10011100
          -12 -103 rlineto
          -130 -24 -80 -120 -181 vvcurveto
          -147 51 -109 84 -49 vhcurveto
          hintmask 11001010
          -15 -126 rlineto
          31 hlineto
          13 112 21 -8 22 -4 24 -2 rlinecurve
          -12 -98 rlineto
          31 hlineto
          12 99 73 4 50 35 45 54 rlinecurve
          endchar
        </CharString>
        <CharString name="comma">
          0 119 hstem
          329 47 vstem
          221 -211 rmoveto
          19 callsubr
        </CharString>
        <CharString name="comma.dnom">
          -2 81 callgsubr
          -107 -58 callsubr
        </CharString>
        <CharString name="comma.numr">
          267 81 callgsubr
          162 -58 callsubr
        </CharString>
        <CharString name="comma.subs">
          -172 81 callgsubr
          -277 -58 callsubr
        </CharString>
        <CharString name="comma.sups">
          438 81 callgsubr
          333 -58 callsubr
        </CharString>
        <CharString name="copyright">
          -12 31 105 37 311 37 113 30 hstem
          37 35 78 43 335 35 vstem
          37 322 -33 callsubr
          78 hmoveto
          -125 71 -73 84 54 31 22 27 30 vhcurveto
          -19 28 rlineto
          -22 -26 -28 -18 -40 hhcurveto
          -68 -46 62 99 90 49 60 68 32 21 -12 -22 24 hvcurveto
          23 26 rlineto
          27 -26 -29 18 -45 hhcurveto
          -85 -75 -71 -116 hvcurveto
          endchar
        </CharString>
        <CharString name="currency">
          137 37 310 37 hstem
          119 44 274 44 vstem
          98 94 rmoveto
          85 88 rlineto
          -29 32 41 -16 44 hhcurveto
          43 42 16 29 31 hvcurveto
          86 -88 27 28 -86 87 rlineto
          23 32 15 41 46 vvcurveto
          48 -15 42 -23 32 vhcurveto
          86 88 -27 28 -86 -89 rlineto
          28 -32 -41 16 -43 hhcurveto
          -44 -41 -16 -28 -31 hvcurveto
          -86 89 -27 -28 85 -88 rlineto
          -23 -32 -14 -42 -48 vvcurveto
          -46 14 -41 23 -32 vhcurveto
          -85 -87 rlineto
          92 206 rmoveto
          92 63 64 74 74 63 -64 -92 -91 -63 -63 -74 -74 -63 63 91 vhcurveto
          endchar
        </CharString>
        <CharString name="d">
          -12 61 callgsubr
          336 45 hintmask 10111100
          67 239 rmoveto
          -162 86 -89 126 67 62 39 44 42 vhcurveto
          2 hlineto
          hintmask 01111100
          5 -71 rlineto
          38 719 -45 -198 hlineto
          3 -97 rlineto
          43 -51 -47 25 -62 hhcurveto
          hintmask 10111100
          -63 callsubr
          endchar
        </CharString>
        <CharString name="d.sups">
          16 callgsubr
          142 419 rmoveto
          -107 55 -60 84 44 37 22 26 28 vhcurveto
          1 hlineto
          4 -40 rlineto
          34 472 -41 -127 hlineto
          3 -57 rlineto
          24 -33 -27 14 -41 hhcurveto
          -79 -69 -64 -103 hvcurveto
          42 hmoveto
          77 48 56 63 -15 callgsubr
          endchar
        </CharString>
        <CharString name="dagger">
          521 39.5 hstem
          280.5 39 vstem
          279 -80 rmoveto
          42 hlineto
          -3 602 132 -2 50 callsubr
          2 rlineto
          endchar
        </CharString>
        <CharString name="daggerdbl">
          71.5 39 411 39 hstem
          280.5 39 vstem
          150 70 rmoveto
          132 3 -3 -153 rlineto
          42 hlineto
          -3 153 132 -3 rlineto
          42 vlineto
          -132 -3 3 207 -3 207 132 -3 50 callsubr
          3 -3 -207 3 -207 -132 3 rlineto
          endchar
        </CharString>
        <CharString name="dcaron">
          -12 -49 callsubr
          56 171 0 -20 hstemhm
          64 47 337 44 46.5 36.5 hintmask 10101111
          64 239 rmoveto
          -162 86 -89 126 68 61 39 44 42 vhcurveto
          3 hlineto
          hintmask 01101111
          4 -71 rlineto
          38 719 -44 -198 hlineto
          2 -97 rlineto
          43 -51 -47 25 -61 hhcurveto
          hintmask 10101111
          -120 -107 -98 -155 hvcurveto
          47 hmoveto
          121 81 93 101 51 49 -20 -51 55 vhcurveto
          -267 vlineto
          -56 -54 -56 -32 -56 hhcurveto
          -107 -64 85 127 hvcurveto
          hintmask 10110111
          456 309 43 callsubr
        </CharString>
        <CharString name="dcroat">
          -12 39 -6 -21 433 39 109 33 -33 138 104 callsubr
          hintmask 10110110
          450 115 rmoveto
          -56 -53 -56 -32 -56 hhcurveto
          -107 -64 81 121 114 81 90 102 49 50 -20 -51 54 hvcurveto
          119 252 rmoveto
          -74 hlineto
          hintmask 10101110
          105 -45 vlineto
          hintmask 10110110
          -105 -184 -33 184 -80 vlineto
          3 -97 rlineto
          43 -51 -47 25 -62 hhcurveto
          -119 -107 -94 -149 -156 86 -85 126 67 62 39 44 42 hvcurveto
          2 hlineto
          hintmask 01110110
          5 -71 rlineto
          38 581 hlineto
          74 4 rlineto
          endchar
        </CharString>
        <CharString name="degree">
          447 32 174 31 hstem
          186 34 160 34 vstem
          300 447 rmoveto
          59 55 44 74 75 -55 44 -59 -59 -55 -44 -75 -74 55 -44 59 hvcurveto
          32 vmoveto
          -47 -33 37 49 51 33 37 47 47 33 -37 -51 -49 -33 -37 -47 hvcurveto
          endchar
        </CharString>
        <CharString name="dieresis">
          598 83 hstem
          172 79 98 79 vstem
          211 598 rmoveto
          23 17 18 23 23 -17 19 -23 -52 callsubr
        </CharString>
        <CharString name="divide">
          109 80 122 38 120 80 hstem
          262 76 vstem
          300 469 rmoveto
          129 callgsubr
          -25 17 -16 21 hvcurveto
          -38 -319 rmoveto
          -25 17 -16 21 129 callgsubr
          vhcurveto
          -167 161 rmoveto
          410 38 -410 hlineto
          endchar
        </CharString>
        <CharString name="dollar">
          35 38 506 38 hstem
          127 45 116 39 132 46 vstem
          484 546 rmoveto
          -39 37 -43 30 -75 5 rrcurveto
          131 -39 -132 vlineto
          -93 -7 -68 -53 -84 -168 332 26 -147 vvcurveto
          -65 -52 -46 -96 -83 -64 36 35 -43 vhcurveto
          -24 -32 43 -36 68 -36 80 -5 rlinecurve
          -145 39 145 vlineto
          100 6 78 57 89 184 -333 -29 133 vvcurveto
          63 53 41 80 74 34 -23 -38 45 vhcurveto
          endchar
        </CharString>
        <CharString name="dollar.a">
          34 39 506 39 hstem
          126 45 289 46 vstem
          322 309 rmoveto
          72 -29 66 -31 -65 vvcurveto
          -65 -52 -46 -96 -12 -11 1 1 -11 vhcurveto
          16 292 rmoveto
          -66 26 -57 27 55 vvcurveto
          63 53 41 80 10 10 0 -1 9 vhcurveto
          37 -7 rmoveto
          34 -10 25 -18 29 -25 26 28 rcurveline
          -29 28 -32 24 -46 12 25 137 rcurveline
          -37 5 -25 -136 rlineto
          1 -10 -11 1 -11 hhcurveto
          -103 -79 -55 -90 -82 79 -36 81 -32 hvcurveto
          -44 -241 -50 13 -41 25 -30 24 rlinecurve
          -24 -32 33 -28 48 -27 57 -14 rlinecurve
          -28 -151 37 -4 27 148 rlineto
          -1 13 12 -1 13 hhcurveto
          109 88 58 95 95 -90 38 -86 34 hvcurveto
          endchar
        </CharString>
        <CharString name="dong">
          0 34 73 37 293 37 87 34 hstem
          120 43 251 41 vstem
          130 hmoveto
          355 34 -355 hlineto
          284 172 rmoveto
          -44 -41 -41 -18 -42 hhcurveto
          -81 -46 59 94 77 58 63 73 48 28 -15 -36 44 hvcurveto
          41 209 rmoveto
          78 -41 -78 -156 -34 156 -45 vlineto
          4 -93 rlineto
          31 -38 -33 20 -55 hhcurveto
          -90 -82 -70 -109 -122 64 -66 101 55 41 25 32 32 hvcurveto
          4 hlineto
          5 -47 rlineto
          33 444 hlineto
          81 5 rlineto
          29 vlineto
          endchar
        </CharString>
        <CharString name="dotaccent">
          596 96 150 callgsubr
          596 14 callgsubr
        </CharString>
        <CharString name="dotlessi">
          42 callsubr
          hstem
          338 44 vstem
          -75 callgsubr
          endchar
        </CharString>
        <CharString name="e">
          -40 callgsubr
          -93 callgsubr
          endchar
        </CharString>
        <CharString name="e.sups">
          252 33 127 29 112 33 -77 callsubr
          endchar
        </CharString>
        <CharString name="eacute">
          -40 callgsubr
          -93 callgsubr
          -84 440 -30 callgsubr
          endchar
        </CharString>
        <CharString name="eacute.sups">
          252 33 127 29 112 33 52 94 -77 callsubr
          -32 291 rmoveto
          -45 hlineto
          -62 -94 rlineto
          33 hlineto
          endchar
        </CharString>
        <CharString name="ebreve">
          -40 callgsubr
          84 32 hstem
          77 46 73 33 174 32 54 43 vstem
          -107 callgsubr
          -173 306 rmoveto
          82 32 69 52 5 hvcurveto
          -32 -67 callsubr
          -33 hlineto
          -52 5 32 -69 83 hhcurveto
          endchar
        </CharString>
        <CharString name="ecaron">
          -40 callgsubr
          80 37 -93 callgsubr
          -193 302 rmoveto
          39 hlineto
          95 30 callgsubr
        </CharString>
        <CharString name="ecircumflex">
          -40 callgsubr
          181 37 -93 callgsubr
          -288 302 rmoveto
          38 hlineto
          75 -55 callsubr
          37 32 callgsubr
        </CharString>
        <CharString name="edieresis">
          -40 callgsubr
          106 83 hstem
          77 46 65 79 99 79 44 43 vstem
          -107 callgsubr
          -261 328 rmoveto
          -13 callgsubr
          -24 -18 callgsubr
          24 hvcurveto
          5 callsubr
        </CharString>
        <CharString name="edotaccent">
          -40 callgsubr
          104 96 hstem
          77 46 146 94 126 43 vstem
          -107 callgsubr
          -173 326 15 callgsubr
        </CharString>
        <CharString name="egrave">
          -40 callgsubr
          -93 callgsubr
          -155 302 80 callgsubr
        </CharString>
        <CharString name="egrave.sups">
          252 33 127 29 112 33 52 94 -77 callsubr
          -91 197 rmoveto
          33 hlineto
          -61 94 rlineto
          -46 hlineto
          endchar
        </CharString>
        <CharString name="eight">
          -74 callgsubr
        </CharString>
        <CharString name="eight.dnom">
          -12 -10 callgsubr
          76 -96 callsubr
        </CharString>
        <CharString name="eight.numr">
          326 -10 callgsubr
          414 -96 callsubr
        </CharString>
        <CharString name="eight.onum">
          -74 callgsubr
        </CharString>
        <CharString name="eight.subs">
          -182 -10 callgsubr
          -94 -96 callsubr
        </CharString>
        <CharString name="eight.sups">
          428 -10 callgsubr
          516 -96 callsubr
        </CharString>
        <CharString name="ellipsis">
          -12 126 hstem
          51 114 78 114 78 114 vstem
          51 51 rmoveto
          -39 28 -24 29 28 29 24 39 40 -29 23 -28 -29 -28 -23 -40 vhcurveto
          192 hmoveto
          -39 28 -24 29 29 28 24 39 40 -28 23 -29 -29 -28 -23 -40 vhcurveto
          192 hmoveto
          -39 29 -24 28 29 28 24 39 40 -28 23 -29 -28 -29 -23 -40 vhcurveto
          endchar
        </CharString>
        <CharString name="emacron">
          -40 callgsubr
          114 36 hstem
          77 46 79 227 60 43 vstem
          -107 callgsubr
          -287 336 18 callsubr
          endchar
        </CharString>
        <CharString name="emdash">
          68 callgsubr
        </CharString>
        <CharString name="endash">
          67 callsubr
        </CharString>
        <CharString name="eogonek">
          152 callsubr
          -54 callgsubr
          hstem
          77 46 229 38 99 43 vstem
          494 78 rmoveto
          -31 -45 -51 -21 -64 hhcurveto
          -125 -84 87 121 -2 hvcurveto
          407 hlineto
          2 12 0 12 12 vvcurveto
          138 -84 84 -131 -122 -118 -96 -157 -157 115 -94 138 32 27 2 14 35 vhcurveto
          -32 -25 -40 -47 -54 vvcurveto
          -54 35 8 callgsubr
          46 29 47 93 67 hvcurveto
          -389 226 -88 callgsubr
          endchar
        </CharString>
        <CharString name="equal">
          209 38 166 38 hstem
          95 410 vstem
          95 413 rmoveto
          410 38 -410 hlineto
          -242 vmoveto
          410 38 -410 hlineto
          endchar
        </CharString>
        <CharString name="estimated">
          -12 20 308 18 306 20 hstem
          26 130 290 128 vstem
          164 68 rmoveto
          -4 6 -4 6 8 vvcurveto
          224 vlineto
          2 2 2 2 vhcurveto
          414 hlineto
          2 0 4 2 vvcurveto
          186 -123 150 -151 -151 -123 -150 -186 -186 123 -150 151 90 78 52 80 54 vhcurveto
          -38 hlineto
          -68 -46 -66 -44 -70 hhcurveto
          -54 -50 22 38 -34 hvcurveto
          -4 266 rmoveto
          -2 -2 2 4 hvcurveto
          220 vlineto
          7 4 9 4 6 vhcurveto
          36 34 50 22 54 hhcurveto
          50 50 -20 -34 34 hvcurveto
          6 -6 4 -8 -8 vvcurveto
          -224 vlineto
          -4 -2 -2 -4 vhcurveto
          endchar
        </CharString>
        <CharString name="eth">
          -12 39 377 38 282 -20 hstem
          67 45 370 45 vstem
          300 27 rmoveto
          -104 -84 79 113 99 61 86 128 58 68 -26 -75 53 hvcurveto
          1 -17 1 -17 -18 vvcurveto
          -125 -53 -99 -129 vhcurveto
          204 649 rmoveto
          -15 27 -134 -69 -45 35 -50 30 -55 25 rlinecurve
          -22 -30 50 -24 45 -26 39 -30 rlinecurve
          -139 -72 16 -28 150 78 66 -57 47 -74 17 -108 rlinecurve
          52 -42 -64 37 -68 hhcurveto
          -141 -92 -91 -132 -144 111 -87 121 138 90 104 160 166 -58 112 -88 82 hvcurveto
          endchar
        </CharString>
        <CharString name="exclam">
          -12 126 -105 -21 682 -20 hstemhm
          242 116 -79 42 hintmask 01101000
          284 219 rmoveto
          32 hlineto
          5 380 rlineto
          71 -42 -71 vlineto
          hintmask 01110000
          -37 -548 163 callsubr
          hintmask 10110000
          41 -28 22 -30 vhcurveto
          hintmask 01110000
          -30 -28 -22 -41 hvcurveto
          endchar
        </CharString>
        <CharString name="exclamdown">
          366 126 0 -20 hstemhm
          242 116 -79 42 hintmask 01010000
          316 261 rmoveto
          -32 hlineto
          -5 -380 rlineto
          -71 42 71 vlineto
          hintmask 01100000
          37 548 158 callsubr
          hintmask 10100000
          -41 28 -22 30 vhcurveto
          hintmask 01100000
          30 28 22 41 hvcurveto
          endchar
        </CharString>
        <CharString name="f">
          42 callsubr
          213 38 hstem
          260 42 vstem
          574 702 rmoveto
          23 -49 -43 6 -43 hhcurveto
          -120 -59 -72 -121 hvcurveto
          -58 vlineto
          -145 -4 rlineto
          -34 145 -442 42 442 223 38 -223 62 vlineto
          89 39 62 101 45 28 -5 -20 45 vhcurveto
          endchar
        </CharString>
        <CharString name="f.sups">
          545 33 129 33 hstem
          289 39 vstem
          500 724 rmoveto
          12 -30 -27 4 -30 hhcurveto
          -84 -40 -49 -79 hvcurveto
          -34 vlineto
          -82 -2 rlineto
          -31 82 -285 39 285 139 33 -139 37 vlineto
          55 25 37 64 27 20 -3 -11 26 vhcurveto
          endchar
        </CharString>
        <CharString name="fi">
          42 callsubr
          116 96 1 38 hstemhm
          144 44 205 95 -70 45 hintmask 11011010
          144 480 rmoveto
          -66 -4 rlineto
          -34 66 12 callsubr
          274 -587 rmoveto
          45 480 -45 hlineto
          hintmask 11101100
          22 212 rmoveto
          -25 -22 -19 -30 -28 22 -19 25 26 22 19 28 30 -22 19 -26 hvcurveto
          endchar
        </CharString>
        <CharString name="figuredash">
          67 callsubr
        </CharString>
        <CharString name="five">
          -12 39 337 39 197 39 hstem
          470 46 vstem
          62 74 114 callgsubr
          136 140 -95 62 -125 -58 -39 -14 -20 -41 hvcurveto
          21 231 rlineto
          304 39 -344 hlineto
          -24 -299 31 -19 rlineto
          26 47 37 17 59 hhcurveto
          112 69 -62 -103 -103 -84 -69 -99 -102 -54 39 39 -44 hvcurveto
          endchar
        </CharString>
        <CharString name="five.dnom">
          -12 20 callsubr
          49 -82 callgsubr
        </CharString>
        <CharString name="five.numr">
          326 20 callsubr
          387 -82 callgsubr
        </CharString>
        <CharString name="five.onum">
          -83 39 338 39 198 40 hstem
          470 46 vstem
          62 3 114 callgsubr
          137 140 -95 62 -125 -58 -39 -13 -20 -41 hvcurveto
          21 231 rlineto
          304 40 -344 hlineto
          -24 -300 31 -19 rlineto
          26 47 37 16 59 hhcurveto
          112 69 -62 -103 -103 -84 -70 -99 -102 -54 39 39 -44 hvcurveto
          endchar
        </CharString>
        <CharString name="five.subs">
          -182 20 callsubr
          -121 -82 callgsubr
        </CharString>
        <CharString name="five.sups">
          428 20 callsubr
          489 -82 callgsubr
        </CharString>
        <CharString name="fiveeighths">
          -12 31 263 31 13 32 143 29 74 35 hstemhm
          241 39 39 83 callsubr
          hintmask 1011111001000000
          38 387 rmoveto
          -33 29 34 -28 61 hhcurveto
          67 51 39 64 65 -47 36 -66 -23 -22 -5 -11 -19 hvcurveto
          13 90 rlineto
          143 35 -175 hlineto
          -18 -151 23 -16 rlineto
          17 21 21 12 29 hhcurveto
          51 30 -26 -46 -43 -32 -28 -47 -47 -27 23 30 -24 hvcurveto
          3 -376 -93 callsubr
          -209 -520 rmoveto
          28 20 25 40 18 vhcurveto
          52 -16 53 -11 -46 vvcurveto
          -32 -41 -23 -41 -46 -37 25 32 vhcurveto
          hintmask 0100000110000000
          -32 callgsubr
          hintmask 1000001001000000
          -15 callsubr
          hintmask 0100000110000000
          -78 callsubr
          hintmask 1000001001000000
          96 callgsubr
        </CharString>
        <CharString name="fl">
          -12 39 -6 94 callgsubr
          213 38 -12 -20 hstemhm
          149 44 212 45 hintmask 10110110
          149 480 rmoveto
          -66 -4 rlineto
          -34 66 vlineto
          hintmask 01110110
          12 callsubr
          hintmask 10101110
          339 -558 rmoveto
          -2 -9 -4 0 -5 hhcurveto
          -12 -8 10 21 hvcurveto
          661 -45 -655 vlineto
          -52 20 -24 39 15 8 2 3 9 vhcurveto
          endchar
        </CharString>
        <CharString name="four">
          21 -21 191 39 348 62 0 -20 hstemhm
          384 43 hintmask 11011000
          102 230 rmoveto
          hintmask 11101000
          219 263 21 28 21 29 20 28 rlinecurve
          6 hlineto
          -2 -32 -1 -34 -2 -31 rrcurveto
          -251 vlineto
          154 hmoveto
          -111 410 -35 hlineto
          -350 -422 rlineto
          -27 342 -191 43 191 111 vlineto
          endchar
        </CharString>
        <CharString name="four.dnom">
          80 35 callgsubr
          109 -60 callgsubr
        </CharString>
        <CharString name="four.numr">
          418 35 callgsubr
          447 -60 callgsubr
        </CharString>
        <CharString name="four.onum">
          101 40 368 63 0 -20 hstemhm
          384 43 hintmask 10110000
          101 141 rmoveto
          hintmask 11010000
          220 279 21 28 22 31 19 30 rlinecurve
          6 hlineto
          -2 -31 -1 -34 -2 -32 rrcurveto
          -271 vlineto
          154 hmoveto
          -111 431 -35 hlineto
          -350 -443 rlineto
          -28 342 -172 43 172 111 vlineto
          endchar
        </CharString>
        <CharString name="four.subs">
          -90 35 callgsubr
          -61 -60 callgsubr
        </CharString>
        <CharString name="four.sups">
          520 35 callgsubr
          549 -60 callgsubr
        </CharString>
        <CharString name="fraction">
          35 589 hstem
          35 530 vstem
          67 35 -93 callsubr
          endchar
        </CharString>
        <CharString name="g">
          -69 callsubr
          26 callgsubr
          268 43 44 46 hintmask 1101100100110000
          -100 callgsubr
          hintmask 1101100010110000
          -90 callgsubr
          hintmask 1101001001110000
          -70 callsubr
          hintmask 1011100010110000
          -50 callsubr
          hintmask 1101100100110000
          48 callsubr
          hintmask 1101010001110000
          -78 callgsubr
          endchar
        </CharString>
        <CharString name="g.a">
          -41 callsubr
          hstemhm
          67 46 337 45 hintmask 11101100
          -80 callgsubr
          hintmask 11011100
          520 -37 vlineto
          hintmask 11101100
          -103 callgsubr
          endchar
        </CharString>
        <CharString name="g.supa">
          113 32 116 35 256 34 hstem
          142 42 204 41 vstem
          183 177 rmoveto
          -16 -30 rlineto
          -21 34 42 -13 44 hhcurveto
          90 52 48 77 hvcurveto
          340 -35 vlineto
          -4 -29 rlineto
          -1 hlineto
          24 -30 -30 13 -39 hhcurveto
          -78 -70 -62 -101 -103 55 -59 84 43 38 22 25 27 hvcurveto
          -1 -67 rlineto
          -59 -34 -37 -67 -34 -36 10 22 -34 vhcurveto
          106 119 rmoveto
          -67 -38 51 77 73 48 55 63 31 29 -11 -27 33 hvcurveto
          -169 vlineto
          -33 -32 -32 -16 -35 hhcurveto
          endchar
        </CharString>
        <CharString name="g.sups">
          110 29 118 36 68 30 155 32 -22 30 hstemhm
          158 37 -16 36 -36 40 163 38 21 40 hintmask 1111010011000000
          195 203 rmoveto
          20 12 21 35 19 vhcurveto
          -5 15 16 -1 17 hhcurveto
          71 hlineto
          53 27 -10 -33 -37 -51 -38 -83 -75 -37 27 37 hvcurveto
          -37 -2 rmoveto
          -57 51 -34 98 107 67 52 58 52 -37 21 -83 vhcurveto
          hintmask 1111001010000000
          -77 hlineto
          -44 -25 13 28 16 11 14 17 10 hvcurveto
          -8 20 18 -5 20 hhcurveto
          67 52 44 67 31 -15 26 -17 17 hvcurveto
          92 32 -134 hlineto
          hintmask 1110100110000000
          6 -13 -15 2 -17 hhcurveto
          -68 -54 -46 -67 -38 18 -28 21 -17 hvcurveto
          -3 vlineto
          hintmask 1111001010000000
          -25 -16 -14 -23 -21 vvcurveto
          -26 17 -17 16 -8 vhcurveto
          -3 vlineto
          hintmask 1111010011000000
          -34 -20 -20 -28 -24 vvcurveto
          hintmask 1111000110000000
          143 190 rmoveto
          -47 -35 33 49 48 35 35 47 45 36 -35 -48 -49 -36 -33 -45 hvcurveto
          endchar
        </CharString>
        <CharString name="gbreve">
          -69 callsubr
          84 32 26 callgsubr
          28 33 174 33 0 43 44 46 hintmask 1101100110000110
          -100 callgsubr
          hintmask 1101100101000110
          -90 callgsubr
          hintmask 1101001100100110
          -70 callsubr
          hintmask 1011100101000110
          -50 callsubr
          hintmask 1101100110000110
          48 callsubr
          hintmask 1101010100100110
          -78 callgsubr
          hintmask 1101100100111010
          14 388 rmoveto
          83 32 69 52 5 -51 callgsubr
          137 callgsubr
        </CharString>
        <CharString name="gbreve.a">
          -41 callsubr
          116 32 hstemhm
          67 46 74 32 174 33 24 45 hintmask 1110110010000000
          -80 callgsubr
          hintmask 1101110010000000
          520 -37 vlineto
          hintmask 1110110010000000
          -103 callgsubr
          hintmask 1110111110000000
          21 537 rmoveto
          83 32 69 52 5 -73 callgsubr
          -32 hlineto
          -52 5 137 callgsubr
        </CharString>
        <CharString name="gcaron">
          -69 callsubr
          80 -85 callgsubr
          -6 384 -3 callsubr
          -37 hlineto
          endchar
        </CharString>
        <CharString name="gcaron.a">
          -41 callsubr
          112 37 hstemhm
          67 46 337 45 hintmask 11100110
          -80 callgsubr
          hintmask 11010110
          520 -37 vlineto
          hintmask 11100110
          -103 callgsubr
          hintmask 11101110
          2 533 rmoveto
          39 -74 callsubr
          -37 hlineto
          endchar
        </CharString>
        <CharString name="gcircumflex">
          -69 callsubr
          181 -85 callgsubr
          -100 384 rmoveto
          37 -48 callsubr
        </CharString>
        <CharString name="gcircumflex.a">
          -41 callsubr
          213 37 hstemhm
          67 46 337 45 hintmask 11100110
          -80 callgsubr
          hintmask 11010110
          520 -37 vlineto
          hintmask 11100110
          -103 callgsubr
          -93 533 rmoveto
          37 hlineto
          hintmask 11101110
          75 -23 callsubr
        </CharString>
        <CharString name="gdotaccent">
          -69 callsubr
          104 96 26 callgsubr
          101 94 73 43 44 46 hintmask 1101100010001100
          -100 callgsubr
          hintmask 1101100001001100
          -90 callgsubr
          hintmask 1101001000101100
          -70 callsubr
          hintmask 1011100001001100
          -50 callsubr
          hintmask 1101100010001100
          48 callsubr
          hintmask 1101010100111100
          -78 callgsubr
          14 408 13 callsubr
        </CharString>
        <CharString name="gdotaccent.a">
          -41 callsubr
          136 96 hstemhm
          67 46 146 94 97 45 hintmask 11100101
          -80 callgsubr
          hintmask 11010101
          520 -37 vlineto
          hintmask 11100101
          -103 callgsubr
          hintmask 11101111
          21 557 13 callsubr
        </CharString>
        <CharString name="germandbls">
          -12 38 -5 -21 693 38 hstemhm
          104 44 139 45 62 45 76 45 hintmask 01111110
          104 hmoveto
          44 519 hlineto
          118 57 56 83 69 37 -44 -57 vhcurveto
          -90 -107 -32 -97 vvcurveto
          hintmask 10111110
          -144 228 34 -139 vvcurveto
          -50 -37 -48 -75 -46 -37 15 30 -40 vhcurveto
          -23 -33 rlineto
          -31 40 49 -19 57 hhcurveto
          90 67 60 79 hvcurveto
          167 -228 -32 115 80 107 35 103 vvcurveto
          75 -57 61 -92 -109 -77 -76 -122 vhcurveto
          endchar
        </CharString>
        <CharString name="grave">
          572 138 hstem
          211 145 vstem
          318 572 -22 callgsubr
        </CharString>
        <CharString name="greater">
          58 548 hstem
          434 43 vstem
          477 352 rmoveto
          -365 254 rlineto
          -48 vlineto
          322 -224 rlineto
          -4 vlineto
          -322 -224 rlineto
          -48 vlineto
          365 254 rlineto
          endchar
        </CharString>
        <CharString name="greaterequal">
          0 37 hstem
          459 46 vstem
          95 hmoveto
          410 37 -410 hlineto
          410 321 rmoveto
          -410 160 rlineto
          -43 vlineto
          231 -88 133 -50 rlineto
          -4 vlineto
          -133 -50 -231 -88 rlineto
          -43 vlineto
          410 160 rlineto
          endchar
        </CharString>
        <CharString name="guillemotleft">
          68 368 hstem
          106 41 167 41 vstem
          248 68 12 callgsubr
          350 -163 12 callgsubr
          endchar
        </CharString>
        <CharString name="guillemotright">
          68 368 hstem
          245 41 167 41 vstem
          119 89 7 callsubr
          82 -163 7 callsubr
          endchar
        </CharString>
        <CharString name="guilsinglleft">
          68 368 hstem
          210 41 vstem
          352 68 12 callgsubr
          endchar
        </CharString>
        <CharString name="guilsinglright">
          68 368 hstem
          349 41 vstem
          223 89 7 callsubr
          endchar
        </CharString>
        <CharString name="h">
          21 148 callgsubr
          hstem
          105 45 319 45 vstem
          -98 callgsubr
          -62 -60 vhcurveto
          3 126 rlineto
          208 -45 vlineto
          endchar
        </CharString>
        <CharString name="h.sups">
          -1 callsubr
          -35 -37 vhcurveto
          3 74 rlineto
          133 -41 vlineto
          endchar
        </CharString>
        <CharString name="hbar">
          21 -21 432 40 109 33 -33 138 hstemhm
          105 45 319 45 hintmask 11101100
          150 491 rmoveto
          90 229 33 -229 vlineto
          hintmask 11011100
          105 -45 vlineto
          hintmask 11101100
          -105 vlineto
          -76 -4 rlineto
          -29 76 -581 45 324 vlineto
          73 69 47 35 68 hhcurveto
          95 40 -52 -107 hvcurveto
          -273 45 279 vlineto
          130 -56 63 -117 -77 -57 -45 -62 -60 vhcurveto
          endchar
        </CharString>
        <CharString name="hcircumflex">
          21 148 callgsubr
          122 33 hstem
          105 45 319 45 vstem
          -98 callgsubr
          -62 -60 vhcurveto
          3 126 rlineto
          208 -45 vlineto
          -39 29 rmoveto
          75 73 57 callsubr
          -73 rlineto
          40 hlineto
          -96 106 rlineto
          -42 hlineto
          -96 -106 rlineto
          endchar
        </CharString>
        <CharString name="hungarumlaut">
          570 138 hstem
          218 251 vstem
          218 570 3 callgsubr
        </CharString>
        <CharString name="hyphen">
          14 callsubr
        </CharString>
        <CharString name="hyphen.a">
          56 callgsubr
        </CharString>
        <CharString name="i">
          42 callsubr
          116 96 hstemhm
          302 94 -58 44 hintmask 11101000
          -75 callgsubr
          hintmask 11110000
          252 116 13 callsubr
        </CharString>
        <CharString name="i.sups">
          545 33 73 72 hstemhm
          311 74 -56 40 hintmask 10010000
          179 545 rmoveto
          150 -285 40 318 -190 hlineto
          hintmask 11100000
          51 callgsubr
        </CharString>
        <CharString name="iacute">
          42 callsubr
          hstem
          338 44 vstem
          -75 callgsubr
          342 230 9 callsubr
        </CharString>
        <CharString name="icircumflex">
          42 callsubr
          193 37 hstem
          338 44 vstem
          -75 callgsubr
          138 92 rmoveto
          37 hlineto
          75 -23 callsubr
        </CharString>
        <CharString name="idieresis">
          42 callsubr
          118 83 hstemhm
          221 79 38 44 17 79 hintmask 11111000
          -75 callgsubr
          164 118 rmoveto
          -13 callgsubr
          -24 -18 callgsubr
          24 hvcurveto
          hintmask 11111100
          5 callsubr
        </CharString>
        <CharString name="igrave">
          42 callsubr
          hstem
          338 44 vstem
          -75 callgsubr
          270 92 -22 callgsubr
        </CharString>
        <CharString name="imacron">
          42 callsubr
          126 36 hstemhm
          236 227 -125 44 hintmask 11101000
          -75 callgsubr
          hintmask 11110000
          139 126 18 callsubr
          endchar
        </CharString>
        <CharString name="infinity">
          168 44 -29 38 212 44 -21 37 hstemhm
          2 39 518 39 hintmask 01011100
          130 183 rmoveto
          73 47 62 47 28 hvcurveto
          4 hlineto
          hintmask 10011100
          -81 50 47 -43 74 hhcurveto
          87 58 71 94 94 -60 66 -88 -74 -53 -56 -70 -38 hvcurveto
          -4 hlineto
          hintmask 10101100
          56 -30 -45 54 -68 hhcurveto
          -74 -62 -58 -91 hvcurveto
          hintmask 01011100
          -83 59 -62 69 vhcurveto
          hintmask 10011100
          174 151 rmoveto
          85 45 43 37 53 hhcurveto
          72 42 -55 -70 -65 -39 -54 -67 -54 -43 29 93 -52 hvcurveto
          hintmask 01101100
          -168 -113 rmoveto
          -51 -44 44 66 65 40 37 55 45 38 -33 -74 40 hvcurveto
          -66 -31 -41 -39 -51 hhcurveto
          endchar
        </CharString>
        <CharString name="integral">
          -158 38 870 38 hstemhm
          274 42 3 41 hintmask 11010000
          215 -116 rmoveto
          -7 -36 rlineto
          -4 9 15 -2 19 hhcurveto
          89 20 94 124 hvcurveto
          hintmask 11100000
          138 -44 233 142 vvcurveto
          108 11 69 57 14 12 -2 -2 8 vhcurveto
          7 36 rlineto
          4 -7 -16 2 -17 hhcurveto
          -92 -19 -95 -123 hvcurveto
          hintmask 11010000
          -137 45 -235 -142 vvcurveto
          -108 -10 -68 -59 -14 -12 2 2 -9 vhcurveto
          endchar
        </CharString>
        <CharString name="iogonek">
          -203 35 189 94 callgsubr
          116 96 hstemhm
          282 39 -19 94 -58 44 hintmask 11110010
          338 hmoveto
          7 hlineto
          hintmask 11111010
          -30 -32 -33 -39 -51 vvcurveto
          -54 36 8 callgsubr
          hvcurveto
          hintmask 11110010
          109 callgsubr
          hintmask 11110100
          11 154 13 callsubr
        </CharString>
        <CharString name="iogonek.d">
          -203 35 189 94 callgsubr
          hstemhm
          282 39 17 44 hintmask 11101000
          338 hmoveto
          7 hlineto
          hintmask 11111000
          -30 -32 -33 -39 -51 vvcurveto
          -54 36 8 callgsubr
          hvcurveto
          hintmask 11101000
          109 callgsubr
          endchar
        </CharString>
        <CharString name="itilde">
          42 callsubr
          101 138 callsubr
          225 30 83 44 62 30 hintmask 11011110
          -75 callgsubr
          128 101 -7 callsubr
          hintmask 11111110
          36 25 -56 48 hhcurveto
          49 19 -26 callgsubr
          hintmask 11011110
          -34 -28 56 -48 hhcurveto
          -48 57 callgsubr
        </CharString>
        <CharString name="j">
          -229 38 633 38 116 96 hstemhm
          302 94 -58 44 hintmask 11001000
          -47 callsubr
          hintmask 11110000
          252 116 13 callsubr
        </CharString>
        <CharString name="j.sups">
          112 34 399 33 73 72 hstemhm
          300 74 -56 40 hintmask 11001000
          168 545 rmoveto
          150 -306 hlineto
          -57 -19 -36 -71 -23 -26 8 11 -20 vhcurveto
          -15 -31 rlineto
          -12 23 31 -10 30 hhcurveto
          99 31 52 79 hvcurveto
          335 -190 vlineto
          hintmask 11110000
          51 callgsubr
        </CharString>
        <CharString name="jcircumflex">
          -229 38 633 38 193 37 hstem
          338 44 vstem
          -47 callsubr
          138 92 rmoveto
          37 hlineto
          75 -23 callsubr
        </CharString>
        <CharString name="k">
          130 callgsubr
          4 callsubr
          endchar
        </CharString>
        <CharString name="k.sups">
          260 472 hstem
          206 40 vstem
          206 260 rmoveto
          40 87 hlineto
          85 80 123 -167 rlineto
          46 hlineto
          -143 194 124 124 rlineto
          -47 hlineto
          -186 -180 rlineto
          -2 334 -40 hlineto
          endchar
        </CharString>
        <CharString name="kgreenlandic">
          21 -21 480 -20 hstem
          123 45 vstem
          123 hmoveto
          45 134 hlineto
          139 132 209 -266 rlineto
          51 hlineto
          -229 294 197 186 rlineto
          -55 hlineto
          -310 -289 -2 -2 rlineto
          291 -45 vlineto
          endchar
        </CharString>
        <CharString name="l">
          101 callsubr
          vstem
          -92 callgsubr
          endchar
        </CharString>
        <CharString name="l.sups">
          252 35 412 33 hstem
          293 41 vstem
          204 699 rmoveto
          89 -343 hlineto
          -70 30 -34 59 29 19 7 6 23 vhcurveto
          -9 33 rlineto
          -8 -23 -14 -3 -17 hhcurveto
          -37 -19 20 45 hvcurveto
          380 -130 vlineto
          endchar
        </CharString>
        <CharString name="lacute">
          -12 166 callgsubr
          41 106 hstem
          271 44 vstem
          -92 callgsubr
          303 147 122 callsubr
          endchar
        </CharString>
        <CharString name="lcaron">
          101 callsubr
          78.5 36.5 vstem
          -92 callgsubr
          329 -171 43 callsubr
        </CharString>
        <CharString name="ldot">
          -12 39 268 96 290 38 hstem
          239 44 87 94 vstem
          60 681 rmoveto
          179 -536 hlineto
          -109 50 -48 91 48 33 14 16 40 vhcurveto
          -15 35 rlineto
          -18 -38 -31 -8 -30 hhcurveto
          -69 -35 36 76 hvcurveto
          580 -223 vlineto
          357 -424 rmoveto
          27 20 19 29 30 -20 18 -27 -26 -21 -18 -30 123 callgsubr
        </CharString>
        <CharString name="less">
          58 548 hstem
          123 43 vstem
          123 312 rmoveto
          365 -254 rlineto
          48 vlineto
          -322 224 rlineto
          4 vlineto
          322 224 rlineto
          48 vlineto
          -365 -254 rlineto
          endchar
        </CharString>
        <CharString name="lessequal">
          0 37 hstem
          95 46 vstem
          95 hmoveto
          410 37 -410 hlineto
          275 vmoveto
          410 -160 rlineto
          43 vlineto
          -231 88 -133 50 rlineto
          4 vlineto
          133 50 231 88 rlineto
          43 vlineto
          -410 -160 rlineto
          endchar
        </CharString>
        <CharString name="lira">
          0 40 206 34 65 34 233 39 hstemhm
          82 164 -161 81 -16 42 20 40 hintmask 11110101
          131 callsubr
          9 0 8 -1 8 vhcurveto
          182 34 hlineto
          hintmask 11111000
          -187 hlineto
          -5 23 -7 21 -8 21 rrcurveto
          207 34 hlineto
          hintmask 11110010
          -219 hlineto
          -12 34 -10 33 35 39 callgsubr
          -35 10 -34 11 -33 hvcurveto
          hintmask 11111000
          -89 -3 rlineto
          -31 101 vlineto
          8 -21 8 -22 5 -22 rrcurveto
          -29 hlineto
          -93 -5 rlineto
          -29 vlineto
          hintmask 11110101
          129 hlineto
          -8 1 -9 -8 110 callgsubr
        </CharString>
        <CharString name="logicalnot">
          311 38 hstem
          464 41 vstem
          95 311 rmoveto
          369 -201 41 239 -410 hlineto
          endchar
        </CharString>
        <CharString name="lozenge">
          -10 38 604 38 hstem
          110 380 vstem
          275 -10 rmoveto
          50 hlineto
          165 340 -165 340 rlineto
          -50 hlineto
          -165 -340 rlineto
          188 -302 rmoveto
          -68 139 -76 163 76 161 68 141 -16 callgsubr
          68 -141 76 -161 -76 -163 -68 -139 rlineto
          endchar
        </CharString>
        <CharString name="lslash">
          101 callsubr
          vstem
          519 53 rmoveto
          -18 -39 -30 -8 -31 hhcurveto
          -68 -36 36 76 hvcurveto
          250 vlineto
          171 97 rlineto
          43 vlineto
          -171 -97 rlineto
          287 -222 -38 178 -274 vlineto
          -130 -75 rlineto
          -43 vlineto
          130 76 rlineto
          -220 vlineto
          -109 51 -48 91 47 34 14 16 39 vhcurveto
          endchar
        </CharString>
        <CharString name="m">
          102 callsubr
          hstemhm
          75 43 172 40 173 43 hintmask 11011100
          -30 callsubr
          hintmask 10111100
          -5 65 rlineto
          -36 hlineto
          endchar
        </CharString>
        <CharString name="m.sups">
          551 35 hstem
          140 39 104 36 104 39 vstem
          140 260 rmoveto
          39 236 hlineto
          36 19 18 157 callsubr
          36 236 vlineto
          36 18 19 157 callsubr
          39 230 vlineto
          63 -25 33 -44 -36 -22 -20 -35 -21 vhcurveto
          37 -8 -21 18 -34 hhcurveto
          -36 -20 -20 -30 -17 hvcurveto
          -2 hlineto
          -4 42 rlineto
          -32 hlineto
          endchar
        </CharString>
        <CharString name="macron">
          6 callgsubr
        </CharString>
        <CharString name="minus">
          14 callsubr
        </CharString>
        <CharString name="multiply">
          135 390 hstem
          112 376 vstem
          139 135 rmoveto
          161 168 161 -168 27 28 -161 167 161 167 -27 28 -161 -169 -161 169 -27 -28 161 -167 -161 -167 rlineto
          endchar
        </CharString>
        <CharString name="n">
          21 36 callsubr
          319 45 hintmask 11011000
          -98 callgsubr
          -59 -55 vhcurveto
          -4 hlineto
          hintmask 10111000
          93 callsubr
          endchar
        </CharString>
        <CharString name="n.sups">
          -1 callsubr
          -34 -35 vhcurveto
          -3 hlineto
          -3 52 rlineto
          -34 hlineto
          endchar
        </CharString>
        <CharString name="nacute">
          21 36 callsubr
          319 45 hintmask 11011000
          -98 callgsubr
          -59 -55 vhcurveto
          -4 hlineto
          hintmask 10111000
          93 callsubr
          304 230 9 callsubr
        </CharString>
        <CharString name="napostrophe">
          102 callsubr
          116 124 hstemhm
          92 46 46 45 297 44 hintmask 11011110
          13 385 rmoveto
          74 41 51 81 -84 callgsubr
          234 -18 rmoveto
          hintmask 10111110
          -5 83 rlineto
          -38 -480 45 hlineto
          hintmask 11011110
          353 vlineto
          66 65 44 33 64 hhcurveto
          87 37 -49 -101 hvcurveto
          -302 44 308 vlineto
          124 -53 60 -108 -73 -53 -41 -54 -52 vhcurveto
          endchar
        </CharString>
        <CharString name="nbspace.frac">
          endchar
        </CharString>
        <CharString name="ncaron">
          102 callsubr
          112 37 hstemhm
          105 45 319 45 hintmask 11011100
          -98 callgsubr
          -59 -55 vhcurveto
          -4 hlineto
          hintmask 10111100
          93 callsubr
          195 92 rmoveto
          39 -74 callsubr
          -37 hlineto
          endchar
        </CharString>
        <CharString name="nine">
          -12 39 227 37 322 162 callsubr
          291 rmoveto
          -107 -54 60 101 91 68 70 90 122 61 -89 -135 10 49 callsubr
          268 194 -93 107 -144 -108 -95 -83 -116 -129 77 -69 123 74 66 35 54 56 hvcurveto
          -236 -2 -102 -80 145 callgsubr
        </CharString>
        <CharString name="nine.dnom">
          -12 3 callsubr
          214 -76 callsubr
        </CharString>
        <CharString name="nine.numr">
          326 3 callsubr
          552 rmoveto
          39 26 28 45 45 39 -30 -61 7 vhcurveto
          -31 -32 -27 -10 -32 hhcurveto
          -51 -20 27 38 hvcurveto
          -31 -198 rmoveto
          -16 23 24 -12 37 hhcurveto
          81 67 54 128 91 -61 52 -68 -65 -45 -44 -55 -53 32 -43 71 37 32 14 24 29 hvcurveto
          -97 -5 -47 -39 -57 hhcurveto
          -28 -21 11 13 -18 hvcurveto
          endchar
        </CharString>
        <CharString name="nine.onum">
          -83 39 227 37 325 162 callsubr
          220 rmoveto
          -107 -54 61 101 92 68 71 90 122 62 -91 -136 9 49 callsubr
          270 194 -93 108 -144 -108 -95 -84 -117 -129 77 -70 123 74 66 35 55 56 hvcurveto
          -236 -2 -102 -81 145 callgsubr
        </CharString>
        <CharString name="nine.subs">
          -182 3 callsubr
          44 -76 callsubr
        </CharString>
        <CharString name="nine.sups">
          428 3 callsubr
          654 -76 callsubr
        </CharString>
        <CharString name="notequal">
          209 38 166 38 hstem
          95 410 vstem
          127 80 rmoveto
          41 hlineto
          79 129 rlineto
          258 38 -235 hlineto
          102 166 rlineto
          133 38 -111 hlineto
          79 129 rlineto
          -41 hlineto
          -79 -129 rlineto
          -258 -38 235 hlineto
          -102 -166 rlineto
          -133 -38 111 hlineto
          endchar
        </CharString>
        <CharString name="ntilde">
          102 callsubr
          121 138 callsubr
          105 45 45 30 189 30 25 45 hintmask 1100111010000000
          -98 callgsubr
          -59 -55 vhcurveto
          -4 hlineto
          hintmask 1010111010000000
          93 callsubr
          90 101 -7 callsubr
          hintmask 1101111110000000
          36 25 -56 48 hhcurveto
          49 19 -26 callgsubr
          hintmask 1100111010000000
          -34 -28 56 -48 hhcurveto
          hintmask 1010111010000000
          -48 57 callgsubr
        </CharString>
        <CharString name="numbersign">
          21 -21 214 36 170 36 194 -20 hstem
          96 413 vstem
          154 hmoveto
          35 hlineto
          25 214 rlineto
          150 hlineto
          -26 -214 rlineto
          35 hlineto
          26 214 rlineto
          90 36 -85 hlineto
          21 170 rlineto
          84 36 -81 hlineto
          25 194 rlineto
          -35 hlineto
          -25 -194 rlineto
          -150 hlineto
          25 194 rlineto
          -34 hlineto
          -26 -194 rlineto
          -92 -36 89 hlineto
          -21 -170 rlineto
          -88 -36 83 hlineto
          40 36 rmoveto
          21 170 rlineto
          150 hlineto
          -21 -170 rlineto
          endchar
        </CharString>
        <CharString name="o">
          -40 callsubr
          -87 callgsubr
          endchar
        </CharString>
        <CharString name="o.sups">
          -18 callsubr
        </CharString>
        <CharString name="oacute">
          -40 callsubr
          -87 callgsubr
          275 471 -30 callgsubr
          endchar
        </CharString>
        <CharString name="ocircumflex">
          -40 callsubr
          181 37 -87 callgsubr
          71 333 -17 callgsubr
        </CharString>
        <CharString name="odieresis">
          -40 callsubr
          106 83 hstem
          67 47 58 79 98 79 58 47 vstem
          -105 callgsubr
          97 359 rmoveto
          23 17 18 23 23 -17 19 -23 -52 callsubr
        </CharString>
        <CharString name="oe">
          -12 37 209 34 186 38 hstem
          10 44 252 40 213 40 vstem
          54 240 rmoveto
          126 46 88 81 75 50 -88 -126 -126 -50 -89 -75 -81 -46 89 126 vhcurveto
          -44 hmoveto
          -160 73 -92 99 64 51 46 86 28 vhcurveto
          -86 28 53 -46 69 hhcurveto
          49 33 21 20 28 hvcurveto
          -17 31 rlineto
          -18 -27 -27 -16 -37 hhcurveto
          -88 -42 88 120 -1 hvcurveto
          251 hlineto
          2 20 0 13 13 vvcurveto
          115 -44 97 -89 -71 -42 -51 -84 -28 vhcurveto
          86 -27 -52 49 -65 hhcurveto
          -98 -73 -92 -160 hvcurveto
          335 28 rmoveto
          111 8 37 75 73 hhcurveto
          72 24 -88 -98 hvcurveto
          endchar
        </CharString>
        <CharString name="ogonek">
          -203 35 hstem
          246 38 vstem
          246 -122 rmoveto
          -31 callgsubr
          43 30 43 47 34 hvcurveto
          -44 hlineto
          -36 -29 -35 -46 -51 vvcurveto
          endchar
        </CharString>
        <CharString name="ograve">
          -40 callsubr
          -87 callgsubr
          204 333 -22 callgsubr
        </CharString>
        <CharString name="ohorn">
          -40 callsubr
          85 callsubr
          -35 40 hintmask 11110000
          300 27 -72 callgsubr
          hintmask 11101000
          -83 callgsubr
          hintmask 11110000
          -8 callgsubr
          hintmask 11101000
          -21 callgsubr
        </CharString>
        <CharString name="ohungarumlaut">
          -40 callsubr
          78 138 -87 callgsubr
          104 331 3 callgsubr
        </CharString>
        <CharString name="omacron">
          -40 callsubr
          114 36 hstem
          67 47 73 226 73 47 vstem
          -105 callgsubr
          73 367 rmoveto
          226 36 -226 hlineto
          endchar
        </CharString>
        <CharString name="one">
          0 39 530 30 -30 70 156 callsubr
          600 -33 vlineto
          hintmask 11010000
          -37 -17 -49 -14 -64 -9 rrcurveto
          hintmask 10110000
          -30 139 -530 -191 -39 414 39 vlineto
          endchar
        </CharString>
        <CharString name="one.dnom">
          241 81 callsubr
          hmoveto
          2 callgsubr
        </CharString>
        <CharString name="one.numr">
          579 81 callsubr
          338 rmoveto
          2 callgsubr
        </CharString>
        <CharString name="one.onum">
          0 39 461 31 -31 71 156 callsubr
          532 -33 vlineto
          hintmask 11010000
          -37 -17 -49 -15 -64 -8 rrcurveto
          hintmask 10110000
          -31 139 -461 -191 -39 414 39 vlineto
          endchar
        </CharString>
        <CharString name="one.subs">
          71 81 callsubr
          -170 rmoveto
          2 callgsubr
        </CharString>
        <CharString name="one.sups">
          681 81 callsubr
          440 rmoveto
          2 callgsubr
        </CharString>
        <CharString name="oneeighth">
          -12 31 263 31 266 103 callsubr
          123 83 callsubr
          hintmask 1101110010000000
          91 callsubr
          hintmask 0010100000000000
          102 callgsubr
          hintmask 1001110010000000
          19 callgsubr
          -209 -520 rmoveto
          28 20 25 40 18 vhcurveto
          52 -16 53 -11 -46 vvcurveto
          -32 -41 -23 -41 -46 -37 25 32 vhcurveto
          hintmask 0100001100000000
          -32 callgsubr
          hintmask 1000010010000000
          -15 callsubr
          hintmask 0100001100000000
          -78 callsubr
          hintmask 1000010010000000
          96 callgsubr
        </CharString>
        <CharString name="onehalf">
          0 33 247 33 266 103 callsubr
          303 39 hintmask 11011100
          91 callsubr
          hintmask 11101100
          102 callgsubr
          hintmask 11011100
          19 callgsubr
          -236 -596 1 callgsubr
          endchar
        </CharString>
        <CharString name="onequarter">
          0 109 -29 29 148 44 278 103 callsubr
          284 36 hintmask 01101110
          565 596 rmoveto
          -32 28 -171 -205 22 -20 rlineto
          -225 -61 rmoveto
          37 301 -31 hlineto
          hintmask 01110110
          102 callgsubr
          hintmask 01101110
          -29 82 vlineto
          -124 -516 161 callsubr
          147 28 callsubr
          hintmask 10101110
          -80 36 vlineto
          hintmask 01101110
          80 49 29 -49 vlineto
          endchar
        </CharString>
        <CharString name="onethird">
          -12 32 119 28 114 32 266 103 callsubr
          299 39 -23 39 hintmask 11101101
          91 callsubr
          hintmask 11110101
          102 callgsubr
          hintmask 11101101
          19 callgsubr
          -250 -547 rmoveto
          -61 callgsubr
          hintmask 11101110
          13 callgsubr
          hintmask 11101101
          40 callsubr
          endchar
        </CharString>
        <CharString name="ordfeminine">
          -57 callgsubr
        </CharString>
        <CharString name="ordfeminine.a">
          -48 callgsubr
        </CharString>
        <CharString name="ordmasculine">
          -18 callsubr
        </CharString>
        <CharString name="oslash">
          -12 38 -6 -21 455 38 -12 -20 85 callsubr
          hintmask 10101100
          444 380 rmoveto
          27 -36 15 -49 -56 vvcurveto
          -126 -78 -87 -108 -48 -42 17 30 -32 vhcurveto
          -22 26 rmoveto
          -27 36 -15 48 56 vvcurveto
          127 78 88 108 48 42 -18 -30 32 vhcurveto
          hintmask 10011100
          109 74 rmoveto
          hintmask 01101100
          -26 21 -55 -63 rlineto
          35 -40 -53 19 -57 hhcurveto
          -126 -107 -92 -161 -73 23 -59 36 -42 hvcurveto
          -57 -66 rlineto
          hintmask 10011100
          26 -21 55 63 rlineto
          -35 41 53 -18 56 hhcurveto
          126 107 92 159 74 -22 59 -37 43 hvcurveto
          endchar
        </CharString>
        <CharString name="otilde">
          71 callgsubr
          hintmask 11011111
          -105 callgsubr
          62 342 rmoveto
          52 callsubr
          hintmask 11111111
          41 callgsubr
          -4 -13 -21 -21 hhcurveto
          hintmask 11011111
          17 callsubr
          endchar
        </CharString>
        <CharString name="p">
          100 callsubr
          -12 -20 hstemhm
          105 45 336 47 hintmask 11101100
          149 56 rmoveto
          -43 49 64 -25 46 hhcurveto
          120 105 96 163 149 -68 96 -136 -62 -69 -35 -46 -48 hvcurveto
          -2 hlineto
          hintmask 11011100
          -5 69 rlineto
          -38 -697 45 175 hlineto
          140 vmoveto
          hintmask 11101100
          70 callsubr
          -105 hvcurveto
          hintmask 11011100
          -38 -62 20 51 -56 hvcurveto
          endchar
        </CharString>
        <CharString name="p.sups">
          108 callgsubr
          222 290 rmoveto
          -24 34 33 -14 160 callsubr
          -89 -42 -39 -21 -25 -32 hvcurveto
          -2 hlineto
          -4 38 rlineto
          -34 -458 41 113 hlineto
          91 vmoveto
          179 vlineto
          32 38 33 128 callgsubr
          -33 10 27 -35 hvcurveto
          endchar
        </CharString>
        <CharString name="paragraph">
          659 -20 hstem
          87 276 56 42 vstem
          419 -80 rmoveto
          42 739 -42 hlineto
          -56 hmoveto
          -44 hlineto
          -137 -95 -58 -150 -149 101 -58 147 hvcurveto
          28 hlineto
          endchar
        </CharString>
        <CharString name="parenleft">
          -174 904 hstem
          224 45 vstem
          456 -174 rmoveto
          25 28 rlineto
          -144 111 -68 139 174 vvcurveto
          174 68 139 144 111 vhcurveto
          -25 28 rlineto
          -144 -104 -88 -152 -196 vvcurveto
          -196 88 -152 144 -104 vhcurveto
          endchar
        </CharString>
        <CharString name="parenleft.dnom">
          -69 63 callgsubr
          155 -28 callgsubr
        </CharString>
        <CharString name="parenleft.numr">
          200 63 callgsubr
          424 rmoveto
          -96 38 -68 66 -60 vhcurveto
          26 24 rlineto
          -63 58 -23 62 80 vvcurveto
          80 23 63 63 58 vhcurveto
          -26 24 rlineto
          -66 -60 -38 -68 -97 vvcurveto
          endchar
        </CharString>
        <CharString name="parenleft.subs">
          -239 63 callgsubr
          -15 -28 callgsubr
        </CharString>
        <CharString name="parenleft.sups">
          371 63 callgsubr
          595 -28 callgsubr
        </CharString>
        <CharString name="parenright">
          -174 904 hstem
          331 45 vstem
          144 -174 rmoveto
          144 104 88 152 196 vvcurveto
          196 -88 152 -144 104 vhcurveto
          -25 -28 rlineto
          144 -111 68 -139 -174 vvcurveto
          -174 -68 -139 -144 -111 vhcurveto
          endchar
        </CharString>
        <CharString name="parenright.dnom">
          -69 64 callgsubr
          155 -29 callsubr
        </CharString>
        <CharString name="parenright.numr">
          200 64 callgsubr
          424 rmoveto
          97 -38 68 -66 60 vhcurveto
          -26 -24 rlineto
          63 -58 23 -63 -80 vvcurveto
          -80 -23 -62 -63 -58 vhcurveto
          26 -24 rlineto
          66 60 38 68 96 vvcurveto
          endchar
        </CharString>
        <CharString name="parenright.subs">
          -239 64 callgsubr
          -15 -29 callsubr
        </CharString>
        <CharString name="parenright.sups">
          371 64 callgsubr
          595 -29 callsubr
        </CharString>
        <CharString name="partialdiff">
          -12 39 333 39 234 39 hstem
          86 45 336 45 vstem
          263 27 rmoveto
          -71 -61 62 91 95 51 85 122 49 55 -22 -62 53 hvcurveto
          -145 -19 -70 -104 -109 hhcurveto
          -71 553 rmoveto
          33 32 42 20 44 hhcurveto
          90 67 -70 -200 -14 0 -13 -1 -14 hvcurveto
          47 -45 -58 30 -59 hhcurveto
          -140 -78 -93 -129 -118 83 -71 90 153 100 152 223 220 -85 89 -114 -57 -51 -24 -39 -37 hvcurveto
          endchar
        </CharString>
        <CharString name="percent">
          -12 32 261 32 13 32 261 32 hstemhm
          27 39 191 39 8 39 191 39 hintmask 10111101
          162 326 rmoveto
          78 56 60 105 104 -56 56 -78 -79 -56 -56 -104 -105 56 -60 79 hvcurveto
          32 vmoveto
          -54 -42 48 85 86 42 42 54 53 42 -42 -86 -85 -42 -48 -53 hvcurveto
          -94 -323 rmoveto
          170 205 -22 20 -181 -197 rlineto
          498 561 rmoveto
          -171 -205 22 -20 181 197 rlineto
          hintmask 11000011
          -127 -608 rmoveto
          79 56 60 105 104 -56 56 -79 -78 -56 -56 -104 -105 56 -60 78 hvcurveto
          32 vmoveto
          -53 -42 48 85 86 42 42 53 54 42 -42 -86 -85 -42 -48 -54 hvcurveto
          endchar
        </CharString>
        <CharString name="period">
          -12 130 120 callsubr
          53 rmoveto
          71 callsubr
        </CharString>
        <CharString name="period.dnom">
          -8 84 callsubr
          30 -13 callsubr
        </CharString>
        <CharString name="period.numr">
          261 84 callsubr
          299 -13 callsubr
        </CharString>
        <CharString name="period.subs">
          -178 84 callsubr
          -140 -13 callsubr
        </CharString>
        <CharString name="period.sups">
          432 84 callsubr
          470 -13 callsubr
        </CharString>
        <CharString name="periodcentered">
          278 131 120 callsubr
          343 rmoveto
          163 callgsubr
          24 -31 -31 -29 -24 -42 vhcurveto
          endchar
        </CharString>
        <CharString name="perthousand">
          -12 30 201 31 140 30 201 30 hstem
          58 37 147 37 42 37 147 37 vstem
          169 390 rmoveto
          66 44 47 85 81 -44 48 -66 -67 -44 -48 -81 -2 callsubr
          386 89 rmoveto
          -443 -204 11 -23 448 189 rlineto
          -402 -483 rmoveto
          66 44 47 85 82 -44 48 -66 -67 -44 -48 -82 -2 callsubr
          263 -30 rmoveto
          66 44 47 85 82 -44 48 -66 -67 -44 -48 -82 -2 callsubr
          endchar
        </CharString>
        <CharString name="peseta">
          21 -21 263 36 139 36 130 35 hstem
          136 43 254 111 vstem
          179 299 rmoveto
          139 254 vlineto
          -94 -7 -64 -45 -110 hhcurveto
          305 vmoveto
          111 64 -34 -96 6 hvcurveto
          -254 130 hlineto
          365 -130 rmoveto
          -66 hlineto
          119 -7 -87 46 -121 hhcurveto
          -127 -165 hlineto
          -81 -5 rlineto
          -31 81 -438 43 263 84 vlineto
          121 86 57 118 8 hvcurveto
          66 hlineto
          endchar
        </CharString>
        <CharString name="pi">
          -12 39 413 40 hstem
          149 41 218 41 vstem
          408 82 rmoveto
          -65 24 -29 57 19 11 4 5 12 vhcurveto
          -7 36 rlineto
          -4 -15 -8 -2 -6 hhcurveto
          -32 -14 15 34 61 2 179 6 124 hvcurveto
          89 40 -425 hlineto
          -67 -4 rlineto
          -36 95 vlineto
          -144 -3 -148 -14 -148 vhcurveto
          44 -3 rlineto
          10 148 4 149 146 vvcurveto
          223 hlineto
          -1 -120 -4 -176 -62 vvcurveto
          endchar
        </CharString>
        <CharString name="plus">
          311 38 hstem
          279 42 vstem
          279 110 rmoveto
          42 201 184 38 -184 201 -42 -201 -184 -38 184 hlineto
          endchar
        </CharString>
        <CharString name="plusminus">
          0 37 273 37 hstem
          279 42 vstem
          279 109 rmoveto
          42 201 184 37 -184 203 -42 -203 -184 -37 184 hlineto
          -184 -310 rmoveto
          410 37 -410 hlineto
          endchar
        </CharString>
        <CharString name="product">
          599 40 hstem
          68 46 370 48 vstem
          68 -120 rmoveto
          46 719 370 -719 48 759 -464 hlineto
          endchar
        </CharString>
        <CharString name="q">
          100 callsubr
          -12 -20 104 callsubr
          hintmask 11101100
          67 239 rmoveto
          -162 86 -89 126 67 60 38 46 47 vhcurveto
          -3 -95 rlineto
          -194 45 vlineto
          hintmask 11011100
          697 -37 vlineto
          hintmask 11101100
          -5 -55 rlineto
          -2 hlineto
          42 -48 -49 25 -61 hhcurveto
          -63 callsubr
          endchar
        </CharString>
        <CharString name="q.sups">
          16 callgsubr
          142 419 rmoveto
          -107 55 -60 84 43 37 21 25 30 vhcurveto
          -3 -59 rlineto
          -119 41 458 -33 vlineto
          -4 -29 rlineto
          -2 hlineto
          24 -32 -27 13 -41 hhcurveto
          -79 -69 -64 -103 hvcurveto
          42 hmoveto
          77 48 56 63 -15 callgsubr
          endchar
        </CharString>
        <CharString name="question">
          -12 126 -105 -21 655 39 hstemhm
          228 116 79 45 hintmask 01111000
          257 219 rmoveto
          40 hlineto
          -21 138 192 42 131 vvcurveto
          86 -65 66 -109 -77 -59 -33 -43 -42 vhcurveto
          29 -27 rlineto
          41 39 51 23 56 hhcurveto
          91 41 -54 -63 -118 -192 -41 26 -148 hvcurveto
          -29 -168 163 callsubr
          hintmask 10111000
          41 -28 22 -30 vhcurveto
          hintmask 01111000
          -30 -28 -22 -41 hvcurveto
          endchar
        </CharString>
        <CharString name="questiondown">
          -202 39 529 126 0 -20 hstemhm
          134 45 79 116 hintmask 10111000
          345 261 rmoveto
          -40 hlineto
          21 -138 -192 -41 -132 vvcurveto
          -86 65 -66 109 76 60 33 43 42 vhcurveto
          -29 27 rlineto
          -40 -39 -51 -24 -56 hhcurveto
          -91 -41 54 63 118 192 41 -26 148 hvcurveto
          29 168 158 callsubr
          hintmask 11011000
          -41 28 -22 30 vhcurveto
          hintmask 10111000
          30 28 22 41 hvcurveto
          endchar
        </CharString>
        <CharString name="quotedbl">
          381 307 hstem
          158 76 132 76 vstem
          178 381 75 callgsubr
          228 -218 75 callgsubr
          endchar
        </CharString>
        <CharString name="quotedblbase">
          -32 128 callsubr
          -223 rmoveto
          74 42 51 80 -84 callgsubr
          228 -30 rmoveto
          74 42 51 80 -84 callgsubr
          endchar
        </CharString>
        <CharString name="quotedblleft">
          385 123 hstem
          120 46 162 46 vstem
          245 700 -38 callgsubr
          5 73 37 59 58 39 rrcurveto
          187 31 -38 callgsubr
          4 73 38 59 58 39 rrcurveto
          endchar
        </CharString>
        <CharString name="quotedblright">
          576 128 callsubr
          385 rmoveto
          74 41 51 81 -84 callgsubr
          228 -30 rmoveto
          74 41 51 81 -84 callgsubr
          endchar
        </CharString>
        <CharString name="quoteleft">
          385 123 hstem
          224 46 vstem
          349 700 -38 callgsubr
          5 73 37 59 58 39 rrcurveto
          endchar
        </CharString>
        <CharString name="quoteright">
          576 124 hstem
          326 46 vstem
          247 385 rmoveto
          74 41 51 81 -84 callgsubr
          endchar
        </CharString>
        <CharString name="quotesinglbase">
          -32 124 hstem
          326 46 vstem
          247 -223 rmoveto
          74 42 51 80 -84 callgsubr
          endchar
        </CharString>
        <CharString name="quotesingle">
          381 307 hstem
          262 76 vstem
          282 381 75 callgsubr
          endchar
        </CharString>
        <CharString name="r">
          21 30 callsubr
          -62 callsubr
          endchar
        </CharString>
        <CharString name="r.sups">
          549 37 hstem
          261 40 vstem
          261 260 rmoveto
          40 192 hlineto
          71 36 45 26 45 hhcurveto
          24 13 -3 -8 23 hvcurveto
          9 35 rlineto
          10 -20 -21 3 -23 hhcurveto
          -55 -47 -33 -52 -30 hvcurveto
          -2 hlineto
          -3 77 rlineto
          -34 hlineto
          endchar
        </CharString>
        <CharString name="racute">
          21 30 callsubr
          -62 callsubr
          270 230 9 callsubr
        </CharString>
        <CharString name="radical">
          -105 60 hstem
          80 492 vstem
          189 384 rmoveto
          -109 -51 15 -31 69 32 150 -439 rlineto
          40 hlineto
          218 925 rlineto
          -38 hlineto
          -190 -813 -4 -17 -2 -18 -4 -17 rlinecurve
          -4 hlineto
          -5 17 -4 18 -6 17 rrcurveto
          endchar
        </CharString>
        <CharString name="rcaron">
          21 120 callgsubr
          112 37 hstemhm
          163 45 hintmask 11001100
          -65 callsubr
          hintmask 10101100
          12 39 rlineto
          hintmask 11001100
          -41 callgsubr
          hintmask 10011100
          -5 118 rlineto
          -38 hlineto
          161 92 rmoveto
          39 -74 callsubr
          -37 hlineto
          endchar
        </CharString>
        <CharString name="registered">
          324 29 141 27 75 28 60 28 hstem
          118 31 83 32 80 34 73 31 vstem
          300 324 rmoveto
          99 83 77 116 117 -83 78 -99 -100 -82 -78 -117 -116 82 -77 100 hvcurveto
          29 vmoveto
          -84 -67 69 95 96 67 71 84 84 67 -71 -96 -95 -67 -69 -84 hvcurveto
          -68 65 rmoveto
          32 76 47 hlineto
          39 -76 rlineto
          37 hlineto
          -49 86 rlineto
          22 7 18 24 25 vvcurveto
          50 -38 14 -39 vhcurveto
          -69 hlineto
          32 -103 rmoveto
          75 32 vlineto
          36 12 -15 -23 -26 -21 -11 -30 hvcurveto
          endchar
        </CharString>
        <CharString name="ring">
          539 26 121 26 hstem
          218 30 104 30 vstem
          300 -24 callsubr
          134 callsubr
          -29 hvcurveto
          endchar
        </CharString>
        <CharString name="s">
          -12 117 callsubr
          315 -101 callsubr
          endchar
        </CharString>
        <CharString name="s.sups">
          252 33 269 32 hstem
          189 40 177 40 vstem
          171 296 rmoveto
          -24 35 49 -20 58 hhcurveto
          86 47 43 49 62 -67 17 -60 18 hvcurveto
          -46 14 -44 14 32 vvcurveto
          28 26 25 59 38 29 -12 -17 26 vhcurveto
          21 27 rlineto
          20 -30 -41 14 -42 hhcurveto
          -81 -45 -39 -48 -54 65 -20 58 -18 hvcurveto
          45 -13 49 -16 -36 vvcurveto
          -31 -31 -26 -60 -55 -35 15 24 -33 vhcurveto
          endchar
        </CharString>
        <CharString name="sacute">
          -12 117 callsubr
          315 -101 callsubr
          279 614 -30 callgsubr
          endchar
        </CharString>
        <CharString name="scaron">
          -12 167 callgsubr
          80 37 hstem
          110 46 315 -101 callsubr
          170 476 -17 callsubr
        </CharString>
        <CharString name="scircumflex">
          -12 167 callgsubr
          181 37 hstem
          110 46 315 -101 callsubr
          75 476 -17 callgsubr
        </CharString>
        <CharString name="section">
          -52 37 658 38 hstemhm
          102 41 23 43 185 42 21 41 hintmask 11100100
          372 180 rmoveto
          -87 56 -142 14 105 vvcurveto
          52 35 27 52 26 vhcurveto
          85 -55 142 -16 -108 vvcurveto
          -55 -31 -24 -54 -22 vhcurveto
          79 448 rmoveto
          30 -40 -50 23 -59 hhcurveto
          hintmask 11110100
          -93 -43 -60 -57 -35 13 -25 21 -21 hvcurveto
          hintmask 11101100
          -55 -27 -43 -39 -65 -182 292 36 -136 vvcurveto
          -46 -39 -39 -61 -66 -38 22 32 -36 vhcurveto
          -30 -28 rlineto
          -37 41 56 -26 73 hhcurveto
          76 66 52 72 35 -13 27 -20 21 hvcurveto
          hintmask 11110100
          55 28 40 34 67 185 -289 -33 131 vvcurveto
          38 26 38 68 53 36 -20 -26 35 vhcurveto
          endchar
        </CharString>
        <CharString name="semicolon">
          0 119 247 131 hstemhm
          240 120 -31 47 hintmask 11100000
          300 366 rmoveto
          31 29 24 42 41 -29 24 -31 -31 -29 -24 -41 -42 29 -24 31 hvcurveto
          -79 -577 rmoveto
          hintmask 11010000
          19 callsubr
        </CharString>
        <CharString name="seven">
          21 -21 600 39 hstem
          245 49 vstem
          245 hmoveto
          49 hlineto
          9 251 50 159 175 203 rrcurveto
          26 -454 -39 397 vlineto
          -153 -186 -63 -155 -10 -259 rrcurveto
          endchar
        </CharString>
        <CharString name="seven.dnom">
          268 80 callsubr
          hmoveto
          -39 callgsubr
        </CharString>
        <CharString name="seven.numr">
          606 80 callsubr
          338 rmoveto
          -39 callgsubr
        </CharString>
        <CharString name="seven.onum">
          531 40 hstem
          245 49 vstem
          245 -71 rmoveto
          49 hlineto
          11 253 48 159 175 203 rrcurveto
          27 -454 -40 397 vlineto
          -153 -186 -63 -156 -10 -260 rrcurveto
          endchar
        </CharString>
        <CharString name="seven.subs">
          98 80 callsubr
          -170 rmoveto
          -39 callgsubr
        </CharString>
        <CharString name="seven.sups">
          708 80 callsubr
          440 rmoveto
          -39 callgsubr
        </CharString>
        <CharString name="seveneighths">
          -12 31 263 31 293 33 hstemhm
          125 39 155 83 callsubr
          hintmask 11111001
          125 338 rmoveto
          39 hlineto
          5 106 20 73 89 98 rrcurveto
          24 -231 -33 184 vlineto
          -70 -85 -29 -72 -7 -111 rrcurveto
          -58 -303 -93 callsubr
          -209 -520 rmoveto
          28 20 25 40 18 vhcurveto
          52 -16 53 -11 -46 vvcurveto
          -32 -41 -23 -41 -46 -37 25 32 vhcurveto
          hintmask 01000110
          -32 callgsubr
          hintmask 10001001
          -15 callsubr
          hintmask 01000110
          -78 callsubr
          hintmask 10001001
          96 callgsubr
        </CharString>
        <CharString name="six">
          -12 38 322 38 226 39 hstem
          86 45 351 45 vstem
          325 26 rmoveto
          -122 -61 79 callgsubr
          -90 hvcurveto
          188 563 rmoveto
          37 -41 -51 25 -71 88 callgsubr
          95 84 116 129 -78 69 -122 -74 -67 -35 -55 -55 hvcurveto
          235 2 101 81 116 hhcurveto
          52 48 -18 -35 36 hvcurveto
          endchar
        </CharString>
        <CharString name="six.dnom">
          -12 32 133 30 98 32 hstem
          185 36 165 38 vstem
          315 20 rmoveto
          -45 -40 30 60 -8 hvcurveto
          32 34 27 11 32 hhcurveto
          51 20 -28 -37 -40 -26 -28 -45 hvcurveto
          102 266 rmoveto
          15 -23 -24 12 -37 hhcurveto
          -82 -66 -53 -129 -91 61 -52 68 65 45 45 55 53 -32 42 -72 -37 -33 -15 -23 -29 hvcurveto
          97 4 50 39 57 hhcurveto
          28 21 -11 -13 18 hvcurveto
          endchar
        </CharString>
        <CharString name="six.numr">
          326 31 callgsubr
          358 -76 callgsubr
        </CharString>
        <CharString name="six.onum">
          -12 38 322 38 226 39 hstem
          88 45 351 44 vstem
          326 26 rmoveto
          -122 -60 79 callgsubr
          -91 hvcurveto
          189 563 rmoveto
          37 -41 -52 25 -70 88 callgsubr
          94 84 116 129 -77 69 -122 -74 -66 -35 -54 -56 hvcurveto
          235 2 101 80 115 hhcurveto
          53 47 -18 -35 37 hvcurveto
          endchar
        </CharString>
        <CharString name="six.subs">
          -182 31 callgsubr
          -150 -76 callgsubr
        </CharString>
        <CharString name="six.sups">
          428 31 callgsubr
          460 -76 callgsubr
        </CharString>
        <CharString name="slash">
          159 callsubr
          486 710 rmoveto
          -45 hlineto
          -327 -870 rlineto
          45 hlineto
          endchar
        </CharString>
        <CharString name="slash.frac">
          35 589 hstem
          35 530 vstem
          67 35 -93 callsubr
          endchar
        </CharString>
        <CharString name="space">
          endchar
        </CharString>
        <CharString name="space.frac">
          endchar
        </CharString>
        <CharString name="sterling">
          0 40 253 36 283 39 hstemhm
          85 81 -16 42 20 40 hintmask 11110100
          131 callsubr
          26 -4 23 -5 23 vhcurveto
          190 36 hlineto
          hintmask 11101000
          -201 hlineto
          -18 52 -22 47 53 39 callgsubr
          -52 22 -50 17 -50 hvcurveto
          -108 -3 rlineto
          -33 vlineto
          hintmask 11110100
          120 hlineto
          6 -23 5 -24 -25 110 callgsubr
        </CharString>
        <CharString name="summation">
          -120 40 680 39 hstemhm
          76 59 -48 59 hintmask 11100000
          76 -87 rmoveto
          -33 468 40 -409 4 vlineto
          249 337 rlineto
          hintmask 11010000
          -238 335 rlineto
          4 367 39 -426 -33 vlineto
          246 -346 rlineto
          endchar
        </CharString>
        <CharString name="t">
          -12 117 callgsubr
          vstem
          -95 callsubr
          endchar
        </CharString>
        <CharString name="t.sups">
          252 34 259 33 hstem
          253 41 vstem
          253 381 rmoveto
          -77 29 -52 90 30 33 8 12 25 vhcurveto
          -9 30 rlineto
          -10 -22 -21 -6 -28 hhcurveto
          -67 -19 34 60 hvcurveto
          165 154 33 -154 92 -34 vlineto
          -5 -92 -83 -2 rlineto
          -31 81 vlineto
          endchar
        </CharString>
        <CharString name="tcaron">
          -12 39 415 38 68 206 hstem
          225 44 128.5 36.5 vstem
          -95 callsubr
          201 106 43 callsubr
        </CharString>
        <CharString name="thorn">
          100 callsubr
          227 -20 hstem
          105 45 336 47 vstem
          150 -42 rmoveto
          -1 98 rlineto
          -42 50 60 -26 49 hhcurveto
          118 107 96 163 149 -70 96 -135 -63 -65 -34 -50 -53 hvcurveto
          3 94 rlineto
          217 -45 -936 45 vlineto
          315 vmoveto
          267 vlineto
          60 60 60 28 51 hhcurveto
          117 48 -88 -118 -130 -77 -90 -103 -39 -61 20 51 -56 hvcurveto
          endchar
        </CharString>
        <CharString name="three">
          -12 39 289 39 258 38 127 callgsubr
          78 129 callsubr
          111 90 -80 59 -89 17 hvcurveto
          4 vlineto
          hintmask 11111000
          82 24 63 50 84 vvcurveto
          98 -87 56 -110 -82 -67 -35 -43 -48 vhcurveto
          27 -30 rlineto
          39 40 63 31 66 hhcurveto
          90 62 -47 -72 -77 -64 -62 127 callsubr
          -85 145 callsubr
        </CharString>
        <CharString name="three.dnom">
          -12 -4 callsubr
          49 -79 callsubr
        </CharString>
        <CharString name="three.numr">
          326 -4 callsubr
          387 rmoveto
          -61 callgsubr
          hintmask 11110000
          38 14 20 24 39 vvcurveto
          52 -40 29 -59 -42 -41 -18 -29 -23 vhcurveto
          23 -23 rlineto
          24 20 33 14 25 hhcurveto
          45 20 -21 -31 -35 -29 -27 -65 hvcurveto
          -28 vlineto
          hintmask 11101000
          73 36 -20 -41 -41 -30 -17 -43 -41 -35 165 callgsubr
        </CharString>
        <CharString name="three.onum">
          -83 39 290 39 259 39 127 callgsubr
          7 129 callsubr
          112 91 -80 59 -89 16 hvcurveto
          4 vlineto
          hintmask 11111000
          82 24 63 51 84 vvcurveto
          98 -87 57 -110 -82 -67 -35 -43 -48 vhcurveto
          27 -31 rlineto
          40 40 63 30 66 hhcurveto
          90 62 -47 -72 -77 -64 -63 127 callsubr
          -86 145 callsubr
        </CharString>
        <CharString name="three.subs">
          -182 -4 callsubr
          -121 -79 callsubr
        </CharString>
        <CharString name="three.sups">
          428 -4 callsubr
          489 -79 callsubr
        </CharString>
        <CharString name="threeeighths">
          -12 31 263 31 13 32 119 28 114 32 hstemhm
          218 39 -23 39 46 83 callsubr
          hintmask 0010001000000000
          38 387 rmoveto
          -61 callgsubr
          hintmask 0001110000000000
          38 14 19 24 39 vvcurveto
          52 -40 29 -58 -42 -41 -18 -29 -23 vhcurveto
          23 -23 rlineto
          24 20 33 41 callsubr
          hintmask 1011001100100000
          40 callsubr
          3 -376 -93 callsubr
          -209 -520 rmoveto
          28 20 25 40 18 vhcurveto
          52 -16 53 -11 -46 vvcurveto
          -32 -41 -23 -41 -46 -37 25 32 vhcurveto
          hintmask 0100000011000000
          -32 callgsubr
          hintmask 1000000100100000
          -15 callsubr
          hintmask 0100000011000000
          -78 callsubr
          hintmask 1000000100100000
          96 callgsubr
        </CharString>
        <CharString name="threequarters">
          0 109 -29 29 148 44 25 32 119 28 114 32 hstemhm
          218 39 -23 39 207 36 hintmask 0101110110000000
          601 596 rmoveto
          -32 28 -171 -205 22 -20 rlineto
          -345 182 rmoveto
          hintmask 0101111010000000
          24 20 34 41 callsubr
          hintmask 0101110110000000
          40 callsubr
          -26 -24 rlineto
          -61 callgsubr
          hintmask 0111111010000000
          38 14 19 24 39 vvcurveto
          52 -40 29 -59 -41 -41 -18 -29 -23 vhcurveto
          18 -541 161 callsubr
          111 28 callsubr
          hintmask 1001110110000000
          -80 36 vlineto
          hintmask 0101110110000000
          80 49 29 -49 vlineto
          endchar
        </CharString>
        <CharString name="tilde">
          -29 callgsubr
        </CharString>
        <CharString name="trademark">
          419 45 164 48 -35 35 hstemhm
          106 38 158 37 196 36 hintmask 10111100
          302 369 rmoveto
          37 161 hlineto
          -5 98 -16 callgsubr
          82 -209 rlineto
          33 hlineto
          hintmask 11011100
          38 callsubr
          rlineto
          hintmask 10111100
          -52 126 rlineto
          -51 hlineto
          -196 -307 rmoveto
          38 272 107 35 -251 -35 106 hlineto
          endchar
        </CharString>
        <CharString name="triagdn">
          37 477 hstem
          46 508 vstem
          299 37 rmoveto
          4 hlineto
          251 475 rlineto
          2 -508 -2 vlineto
          endchar
        </CharString>
        <CharString name="triagup">
          48 479 hstem
          46 508 vstem
          46 48 73 callgsubr
        </CharString>
        <CharString name="two">
          0 40 573 38 160 callgsubr
          -245 hlineto
          -40 -40 -3 -2 -40 hvcurveto
          203 188 126 122 127 vvcurveto
          108 -73 71 -125 -86 -62 -41 -53 -53 vhcurveto
          29 -28 rlineto
          48 44 58 36 66 hhcurveto
          110 48 -62 -80 -115 -116 -115 -236 -213 hvcurveto
          endchar
        </CharString>
        <CharString name="two.dnom">
          0 35 callsubr
          hmoveto
          226 33 -161 hlineto
          81 72 63 49 59 vvcurveto
          65 -40 35 -67 -45 -39 -26 -32 -26 vhcurveto
          27 -21 rlineto
          27 20 29 19 32 hhcurveto
          44 26 -26 -42 -51 -53 -42 -117 -95 hvcurveto
          endchar
        </CharString>
        <CharString name="two.numr">
          338 35 callsubr
          338 -52 callgsubr
        </CharString>
        <CharString name="two.onum">
          0 40 504 39 160 callgsubr
          -235 hlineto
          -40 -40 -3 -2 -40 hvcurveto
          202 144 117 113 105 vvcurveto
          113 -73 73 -125 -86 -62 -42 -53 -53 vhcurveto
          29 -27 rlineto
          48 44 58 35 66 hhcurveto
          110 48 -64 -84 -92 -114 -114 -238 -162 hvcurveto
          endchar
        </CharString>
        <CharString name="two.subs">
          -170 35 callsubr
          -170 -52 callgsubr
        </CharString>
        <CharString name="two.sups">
          440 35 callsubr
          440 -52 callgsubr
        </CharString>
        <CharString name="twothirds">
          -12 32 119 28 114 32 25 33 247 33 hstemhm
          222 39 234 39 -23 39 hintmask 11011101
          52 338 1 callgsubr
          15 -327 -93 callsubr
          -250 -547 rmoveto
          -61 callgsubr
          hintmask 11111110
          13 callgsubr
          hintmask 11011101
          40 callsubr
          endchar
        </CharString>
        <CharString name="u">
          -12 21 callsubr
          319 44 hintmask 10111000
          494 480 rmoveto
          -44 -105 callsubr
          hintmask 01111000
          -5 callsubr
          endchar
        </CharString>
        <CharString name="u.sups">
          252 36 hstem
          167 41 187 40 vstem
          435 578 rmoveto
          -40 -230 hlineto
          -41 -39 -30 -19 -40 hhcurveto
          -56 -22 30 62 hvcurveto
          198 -41 -203 vlineto
          -82 35 -41 74 49 38 26 36 32 vhcurveto
          2 hlineto
          5 -54 rlineto
          33 hlineto
          endchar
        </CharString>
        <CharString name="uacute">
          -12 21 callsubr
          319 44 hintmask 10111000
          494 480 rmoveto
          -44 -105 callsubr
          hintmask 01111000
          -5 callsubr
          -110 710 9 callsubr
        </CharString>
        <CharString name="ubreve">
          -50 callgsubr
          116 32 hstemhm
          87 44 43 33 174 33 36 44 hintmask 10111001
          494 480 rmoveto
          -44 -105 callsubr
          hintmask 01111111
          -5 callsubr
          -200 576 rmoveto
          83 31 -63 callgsubr
          137 callgsubr
        </CharString>
        <CharString name="ucircumflex">
          -50 callgsubr
          213 37 105 callgsubr
          hintmask 10111100
          494 480 rmoveto
          -44 -105 callsubr
          hintmask 01111100
          -5 callsubr
          -314 572 rmoveto
          37 -48 callsubr
        </CharString>
        <CharString name="udieresis">
          -50 callgsubr
          138 83 hstemhm
          87 44 35 79 99 78 28 44 hintmask 10111001
          494 480 rmoveto
          -44 -105 callsubr
          hintmask 01111101
          -5 callsubr
          -289 598 rmoveto
          88 callsubr
          hintmask 10111011
          178 hmoveto
          23 16 18 23 23 -16 140 callsubr
          endchar
        </CharString>
        <CharString name="ugrave">
          -12 21 callsubr
          319 44 hintmask 10111000
          494 480 rmoveto
          -44 -105 callsubr
          hintmask 01111000
          -5 callsubr
          -182 572 -22 callgsubr
        </CharString>
        <CharString name="uhorn">
          -12 21 callsubr
          319 44 49 40 hintmask 10111100
          529 588 rmoveto
          10 -13 4 -13 -13 vvcurveto
          -41 -33 -21 -52 -7 vhcurveto
          -8 -105 callsubr
          hintmask 01111100
          -56 callsubr
        </CharString>
        <CharString name="uhungarumlaut">
          -50 callgsubr
          110 138 105 callgsubr
          hintmask 10111100
          494 480 rmoveto
          -44 -105 callsubr
          hintmask 01111100
          -5 callsubr
          -282 570 64 callsubr
          61 -138 64 callsubr
          endchar
        </CharString>
        <CharString name="umacron">
          -50 callgsubr
          146 36 hstemhm
          87 44 50 227 42 44 hintmask 10111010
          494 480 rmoveto
          -44 -105 callsubr
          hintmask 01111110
          -5 callsubr
          -313 606 18 callsubr
          endchar
        </CharString>
        <CharString name="underscore">
          -125 46 hstem
          60 480 vstem
          60 -79 rmoveto
          -46 480 46 vlineto
          endchar
        </CharString>
        <CharString name="uni00470303">
          22 callsubr
          45 126 callgsubr
          59 48 95 29 202 28 19 45 hintmask 1110111010000000
          -102 callsubr
          hintmask 1111111110000000
          331 385 rmoveto
          45 23 48 44 3 hvcurveto
          -28 hlineto
          -34 -4 -16 -22 -22 hhcurveto
          hintmask 1110111010000000
          -40 -26 56 -52 hhcurveto
          -45 -23 -47 -45 125 callsubr
          34 4 16 23 21 hhcurveto
          hintmask 1111111110000000
          41 25 -57 52 hhcurveto
          endchar
        </CharString>
        <CharString name="uni00670303">
          -69 callsubr
          89 34 22 34 26 callgsubr
          24 30 188 31 -5 43 44 46 hintmask 1101100011000011
          -100 callgsubr
          hintmask 1101100010100011
          -90 callgsubr
          hintmask 1101001010010011
          -70 callsubr
          hintmask 1011100010100011
          -50 callsubr
          hintmask 1101100011000011
          48 callsubr
          hintmask 1101010010010011
          -78 callgsubr
          hintmask 1101100010011011
          -110 393 -7 callsubr
          hintmask 1101100110010101
          36 25 -56 48 hhcurveto
          49 19 47 43 3 hvcurveto
          -31 hlineto
          -35 -4 -12 -21 -22 hhcurveto
          hintmask 1101100010011011
          -34 -28 56 -48 hhcurveto
          -48 57 callgsubr
        </CharString>
        <CharString name="uni00670303.a">
          -41 callsubr
          121 138 callsubr
          67 46 69 30 189 30 19 45 hintmask 1110011101000000
          -80 callgsubr
          hintmask 1101011101000000
          520 -37 vlineto
          hintmask 1110011101000000
          -103 callgsubr
          -103 542 -7 callsubr
          hintmask 1110111111000000
          36 25 -56 48 hhcurveto
          49 19 -26 callgsubr
          hintmask 1110011101000000
          -34 -27 56 -49 hhcurveto
          -48 57 callgsubr
        </CharString>
        <CharString name="uni00A0">
          endchar
        </CharString>
        <CharString name="uni00AD">
          14 callsubr
        </CharString>
        <CharString name="uni00AD.a">
          56 callgsubr
        </CharString>
        <CharString name="uni00B5">
          -11 39 hstem
          87 44 319 41 vstem
          87 -182 rmoveto
          44 hlineto
          -4 85 -1 41 114 vvcurveto
          -57 32 49 -12 60 hhcurveto
          69 64 37 82 50 hvcurveto
          2 hlineto
          -85 2 12 -35 43 hhcurveto
          13 9 2 3 9 hvcurveto
          -7 36 rlineto
          -2 -10 -4 0 -4 hhcurveto
          -13 -11 10 21 137 2 145 1 140 hvcurveto
          -44 -322 hlineto
          -115 -68 -60 -15 -58 hhcurveto
          -94 -39 59 100 hvcurveto
          293 -44 vlineto
          endchar
        </CharString>
        <CharString name="uni0122">
          -209 30 167 42 255 39 305 42 hstem
          59 48 247 40 86 45 vstem
          -102 callsubr
          251 -382 -71 callsubr
          65 84 callgsubr
          -55 11 vhcurveto
          endchar
        </CharString>
        <CharString name="uni0123">
          -69 callsubr
          175 30 26 callgsubr
          89 39 140 43 44 46 hintmask 1101100010011100
          -100 callgsubr
          hintmask 1101100001011100
          -90 callgsubr
          hintmask 1101001000111100
          -70 callsubr
          hintmask 1011100001011100
          -50 callsubr
          hintmask 1101100010011100
          48 callsubr
          hintmask 1101010100111100
          -78 callgsubr
          38 351 rmoveto
          43 callgsubr
          -41 28 -21 55 -11 vhcurveto
          endchar
        </CharString>
        <CharString name="uni0123.a">
          -41 callsubr
          207 30 hstemhm
          67 46 134 39 164 45 hintmask 11100111
          -80 callgsubr
          hintmask 11010111
          520 -37 vlineto
          hintmask 11100111
          -103 callgsubr
          45 500 rmoveto
          hintmask 11101111
          43 callgsubr
          hintmask 11100111
          -41 28 -21 55 -11 vhcurveto
          endchar
        </CharString>
        <CharString name="uni012C">
          54 callsubr
          52 32 hstem
          185 33 59 46 vstem
          -91 callgsubr
          193 671 rmoveto
          -65 callgsubr
        </CharString>
        <CharString name="uni012D">
          42 callsubr
          96 32 hstem
          230 32 76 44 54 33 vstem
          -75 callgsubr
          252 96 rmoveto
          83 32 69 52 5 -73 callgsubr
          -32 hlineto
          -52 5 137 callgsubr
        </CharString>
        <CharString name="uni0136">
          -209 30 200 126 callsubr
          hstem
          115 47 202 40 5 callgsubr
          205 -710 -71 callsubr
          65 84 callgsubr
          -55 11 vhcurveto
          endchar
        </CharString>
        <CharString name="uni0137">
          130 callgsubr
          192 39 4 callsubr
          193 -770 -71 callsubr
          64 8 61 25 52 vvcurveto
          41 -28 137 callsubr
        </CharString>
        <CharString name="uni013B">
          -209 30 179 53 callgsubr
          179 40 -45 callgsubr
          179 -710 -71 callsubr
          65 84 callgsubr
          -55 11 vhcurveto
          endchar
        </CharString>
        <CharString name="uni013C">
          101 callsubr
          80 39 vstem
          -92 callgsubr
          258 -770 rmoveto
          -13 -29 rlineto
          29 -6 28 -12 -31 vvcurveto
          -27 -71 callgsubr
          41 -29 21 -54 11 vhcurveto
          endchar
        </CharString>
        <CharString name="uni0145">
          0 144 callsubr
          183 39 106 44 hintmask 01011110
          47 callgsubr
          hintmask 01101110
          -79 callgsubr
          hintmask 10011110
          -69 callgsubr
          183 -710 rmoveto
          -13 -29 rlineto
          29 -6 28 -12 -31 vvcurveto
          -27 -71 callgsubr
          41 -29 21 -54 11 vhcurveto
          endchar
        </CharString>
        <CharString name="uni0146">
          21 36 callsubr
          185 39 95 45 hintmask 11011100
          -98 callgsubr
          -59 -55 vhcurveto
          -4 hlineto
          hintmask 10111100
          93 callsubr
          186 -531 -71 callsubr
          64 8 61 25 52 vvcurveto
          41 -28 137 callsubr
        </CharString>
        <CharString name="uni014E">
          -46 callsubr
          40 32 hstem
          54 48 83 33 280 48 vstem
          -106 callgsubr
          681 vmoveto
          -65 callgsubr
        </CharString>
        <CharString name="uni014F">
          -40 callsubr
          84 32 hstem
          67 47 66 33 174 33 66 47 vstem
          -105 callgsubr
          186 337 rmoveto
          82 32 -63 callgsubr
          137 callgsubr
        </CharString>
        <CharString name="uni0156">
          21 74 callsubr
          176 39 97 47 vstem
          282 -80 rmoveto
          29 -6 28 -12 -31 vvcurveto
          -27 -71 callgsubr
          41 -29 21 -54 11 vhcurveto
          -132 392 -55 callgsubr
          60 -35 rmoveto
          -82 callsubr
          54 hlineto
          endchar
        </CharString>
        <CharString name="uni0157">
          21 30 callsubr
          9 39 -62 callsubr
          hintmask 11001100
          10 -531 -71 callsubr
          64 8 61 25 52 vvcurveto
          41 -28 137 callsubr
        </CharString>
        <CharString name="uni015E">
          -208 30 166 121 callsubr
          172 40 114 46 vstem
          281 384 rmoveto
          -52 22 -72 29 76 vvcurveto
          72 62 46 93 70 56 -27 -41 41 vhcurveto
          27 31 rlineto
          43 -43 -67 36 -84 hhcurveto
          -115 -86 -67 -95 -98 82 -41 61 -25 hvcurveto
          100 -45 rlineto
          70 -29 59 -27 -82 vvcurveto
          -78 -67 -54 -107 -81 -72 35 54 -50 vhcurveto
          -30 -32 52 -55 73 -40 95 -4 rlinecurve
          -33 -62 rlineto
          38 -42 callgsubr
          22 43 rlineto
          121 8 77 73 95 vvcurveto
          101 -70 41 -79 33 vhcurveto
          endchar
        </CharString>
        <CharString name="uni015F">
          -12 117 callsubr
          178 39 98 46 vstem
          482 433 rmoveto
          34 -46 -74 25 -64 hhcurveto
          -129 -59 -58 -70 -64 81 -43 108 -26 hvcurveto
          141 -34 31 -32 -44 vvcurveto
          -51 -51 -44 -99 -99 -62 27 43 -52 vhcurveto
          -25 -32 53 -38 74 -33 90 -5 rlinecurve
          -33 -62 rlineto
          77 callgsubr
          -71 callgsubr
          40 -27 18 -33 11 vhcurveto
          22 42 rlineto
          116 5 66 61 69 vvcurveto
          69 -49 38 -150 37 vhcurveto
          -99 24 -63 30 46 vvcurveto
          45 34 42 107 65 54 -21 -32 42 vhcurveto
          endchar
        </CharString>
        <CharString name="uni0162">
          -208 30 199 -21 619 40 hstemhm
          277 46 -12 40 hintmask 01110000
          323 hmoveto
          619 229 40 -504 -40 229 -619 7 vlineto
          hintmask 11101000
          -39 -74 rlineto
          38 -42 callgsubr
          hintmask 01110000
          28 54 rlineto
          endchar
        </CharString>
        <CharString name="uni0163">
          -12 39 -37 37 415 38 hstemhm
          225 44 127 39 hintmask 10111000
          397 -12 rmoveto
          46 57 12 18 43 hvcurveto
          -12 34 rlineto
          -16 -38 -40 -9 -51 hhcurveto
          -106 -27 56 93 hvcurveto
          266 256 38 -256 139 -37 vlineto
          -6 -139 -146 -4 rlineto
          -34 145 -262 vlineto
          hintmask 01111000
          -105 33 -73 105 -12 vhcurveto
          -34 -64 rlineto
          77 callgsubr
          -71 callgsubr
          hintmask 10111000
          40 -27 18 -33 11 vhcurveto
          endchar
        </CharString>
        <CharString name="uni0180">
          -12 39 -6 -21 433 39 109 33 -33 138 hstemhm
          105 45 336 47 hintmask 10110110
          150 345 rmoveto
          60 60 62 28 50 hhcurveto
          118 46 -84 -112 -124 -75 -86 -103 -40 -62 20 51 -56 hvcurveto
          393 vmoveto
          90 229 33 -229 vlineto
          hintmask 10101110
          105 -45 vlineto
          hintmask 01110110
          -105 vlineto
          -76 -4 rlineto
          -29 76 -581 37 vlineto
          hintmask 10110110
          108 callsubr
          92 157 143 -68 92 -136 -62 -68 -34 -50 -52 hvcurveto
          endchar
        </CharString>
        <CharString name="uni018F">
          -12 40 268 37 298 40 hstem
          65 46 387 46 vstem
          111 296 rmoveto
          386 hlineto
          -162 -9 -75 -106 -114 hhcurveto
          -108 -70 103 163 -10 hvcurveto
          47 272 rmoveto
          40 37 50 25 58 hhcurveto
          127 68 -117 -181 hvcurveto
          -433 hlineto
          -2 0 -2 -3 vvcurveto
          -196 88 -142 146 147 98 135 208 209 -88 131 -153 -73 -57 -32 -42 -38 vhcurveto
          endchar
        </CharString>
        <CharString name="uni0192">
          -98 39 427 37 227 39 -22 -20 hstemhm
          280.5 44 hintmask 11011000
          527 649 rmoveto
          hintmask 11101000
          12 -21 -28 10 -38 hhcurveto
          -98 -44 -78 -125 -14 hvcurveto
          -7 -63 rlineto
          -51 hlineto
          -67 -4 rlineto
          -33 114 vlineto
          -28 -262 rlineto
          -95 -12 -28 -70 -78 hhcurveto
          -23 -21 7 8 -19 hvcurveto
          -13 -34 rlineto
          -10 21 24 -10 30 hhcurveto
          104 42 77 123 15 hvcurveto
          29 266 rlineto
          162 37 -157 hlineto
          7 67 rlineto
          81 7 29 79 76 hhcurveto
          31 21 -6 -11 20 hvcurveto
          endchar
        </CharString>
        <CharString name="uni01CD">
          21 -66 callgsubr
          50 34 hstem
          45 510 vstem
          321 709 rmoveto
          96 106 rlineto
          -40 hlineto
          -75 -72 rlineto
          -4 hlineto
          -75 72 rlineto
          -40 hlineto
          96 -106 rlineto
          -96 -444 -106 callsubr
        </CharString>
        <CharString name="uni01CE">
          -54 callsubr
          80 37 47 callsubr
          hintmask 10101100
          -97 callsubr
          hintmask 01101100
          -104 callgsubr
          hintmask 10101100
          -104 callsubr
          hintmask 10111100
          160 450 rmoveto
          40 hlineto
          94 30 callgsubr
        </CharString>
        <CharString name="uni01CE.a">
          -68 callsubr
          112 37 104 callsubr
          hintmask 10100110
          -107 callsubr
          hintmask 01010110
          -75 callsubr
          hintmask 10100110
          -100 callsubr
          hintmask 10101110
          217 333 rmoveto
          39 -74 callsubr
          -37 hlineto
          endchar
        </CharString>
        <CharString name="uni01CF">
          54 callsubr
          50 34 105 callsubr
          -91 callgsubr
          270 775 -89 callsubr
        </CharString>
        <CharString name="uni01D0">
          42 callsubr
          92 37 hstem
          338 44 vstem
          -75 callgsubr
          233 92 rmoveto
          39 -74 callsubr
          -37 hlineto
          endchar
        </CharString>
        <CharString name="uni01D1">
          -46 callsubr
          38 34 -89 callgsubr
          77 785 -89 callsubr
        </CharString>
        <CharString name="uni01D2">
          -40 callsubr
          80 37 -87 callgsubr
          166 333 -17 callsubr
        </CharString>
        <CharString name="uni01D3">
          -25 callgsubr
          70 34 hstem
          89 46 333 43 vstem
          -103 callsubr
          288 156 -89 callsubr
        </CharString>
        <CharString name="uni01D4">
          -50 callgsubr
          112 37 105 callgsubr
          hintmask 10111100
          494 480 rmoveto
          -44 -105 callsubr
          hintmask 01111100
          -5 callsubr
          -220 572 -3 callsubr
          -37 hlineto
          endchar
        </CharString>
        <CharString name="uni01D5">
          -25 callgsubr
          86 71 58 33 hstem
          89 46 51 71 86 71 54 43 vstem
          -103 callsubr
          97 195 rmoveto
          228 33 -228 hlineto
          35 -162 -86 callgsubr
          endchar
        </CharString>
        <CharString name="uni01D6">
          -50 callgsubr
          138 71 78 33 hstemhm
          87 44 49 71 86 72 41 44 hintmask 1011110010000000
          494 480 rmoveto
          -44 -105 callsubr
          hintmask 0111111110000000
          -5 callsubr
          -279 598 -43 callgsubr
          -194 149 rmoveto
          229 33 -229 hlineto
          endchar
        </CharString>
        <CharString name="uni01D7">
          -25 callgsubr
          86 71 33 106 hstem
          89 46 51 71 86 71 54 43 vstem
          -103 callsubr
          174 170 rmoveto
          39 hlineto
          109 106 rlineto
          -54 hlineto
          -136 -210 -86 callgsubr
          endchar
        </CharString>
        <CharString name="uni01D8">
          -50 callgsubr
          138 71 41 98 hstemhm
          87 44 49 71 86 72 41 44 hintmask 1011110010000000
          494 480 rmoveto
          -44 -105 callsubr
          hintmask 0111111110000000
          -5 callsubr
          -243 710 rmoveto
          36 hlineto
          96 98 rlineto
          -52 hlineto
          -116 -210 -43 callgsubr
          endchar
        </CharString>
        <CharString name="uni01D9">
          -25 callgsubr
          86 71 33 34 hstem
          89 46 51 71 86 71 54 43 vstem
          -103 callsubr
          132 66 -86 callgsubr
          -2 210 -89 callsubr
        </CharString>
        <CharString name="uni01DA">
          -50 callgsubr
          138 71 41 31 hstemhm
          87 44 49 71 86 72 41 44 hintmask 1011110010000000
          494 480 rmoveto
          -44 -105 callsubr
          hintmask 0111111110000000
          -5 callsubr
          -220 710 rmoveto
          40 hlineto
          93 98 rlineto
          -38 hlineto
          -73 -67 rlineto
          -4 hlineto
          -72 67 rlineto
          -39 hlineto
          34 -210 -43 callgsubr
          endchar
        </CharString>
        <CharString name="uni01DB">
          -25 callgsubr
          86 71 33 106 hstem
          89 46 51 71 86 71 54 43 vstem
          -103 callsubr
          154 276 -7 callgsubr
        </CharString>
        <CharString name="uni01DC">
          -50 callgsubr
          138 71 41 98 hstemhm
          87 44 49 71 86 72 41 44 hintmask 1011110010000000
          494 480 rmoveto
          -44 -105 callsubr
          hintmask 0111111110000000
          -5 callsubr
          -237 808 rmoveto
          -52 hlineto
          97 -98 rlineto
          36 hlineto
          35 -112 rmoveto
          20 16 16 20 20 -16 -14 callsubr
          -158 hmoveto
          21 65 callgsubr
          -21 -20 -15 -15 -20 -20 15 -16 20 hvcurveto
          endchar
        </CharString>
</ttFont>
